<svg width="24" height="24" viewBox="0 0 24 24" fill="none" xmlns="http://www.w3.org/2000/svg">
<path d="M6 2.24998C5.17548 2.24998 4.5 2.9255 4.5 3.74998V20.25C4.5 21.0745 5.17548 21.75 6 21.75H18C18.8245 21.75 19.5 21.0745 19.5 20.25V6.37498C19.5 6.37303 19.5 6.37107 19.5 6.36912C19.5 6.36717 19.5 6.36521 19.5 6.36326C19.4998 6.35446 19.4993 6.34566 19.4985 6.33689C19.4981 6.33298 19.4976 6.32907 19.4971 6.32517C19.4911 6.27501 19.475 6.22658 19.4498 6.18278C19.4247 6.13898 19.3909 6.10072 19.3506 6.07029L15.687 2.40818C15.6851 2.40572 15.6831 2.40327 15.6812 2.40086C15.6457 2.35328 15.5995 2.3148 15.5462 2.28857C15.493 2.26234 15.4343 2.24912 15.375 2.24998H6ZM6 2.99998H15V5.24998C15 6.07453 15.6755 6.74998 16.5 6.74998H18.75V20.25C18.75 20.672 18.422 21 18 21H6C5.578 21 5.25 20.672 5.25 20.25V3.74998C5.25 3.32803 5.578 2.99998 6 2.99998ZM15.75 3.53025L18.2197 5.99998H16.5C16.078 5.99998 15.75 5.672 15.75 5.24998V3.53025ZM7.84277 10.5C7.74332 10.505 7.64994 10.5494 7.58319 10.6233C7.51643 10.6972 7.48177 10.7946 7.48682 10.894C7.49187 10.9935 7.53622 11.0869 7.61012 11.1536C7.68401 11.2204 7.7814 11.255 7.88086 11.25H12.8496H16.125C16.1747 11.2507 16.224 11.2415 16.2701 11.223C16.3163 11.2044 16.3582 11.1769 16.3936 11.142C16.429 11.1071 16.4571 11.0656 16.4763 11.0197C16.4955 10.9739 16.5053 10.9247 16.5053 10.875C16.5053 10.8253 16.4955 10.7761 16.4763 10.7302C16.4571 10.6844 16.429 10.6428 16.3936 10.6079C16.3582 10.573 16.3163 10.5455 16.2701 10.527C16.224 10.5085 16.1747 10.4993 16.125 10.5H12.8496H7.88086C7.86817 10.4993 7.85546 10.4993 7.84277 10.5ZM7.84277 12C7.74332 12.005 7.64994 12.0494 7.58319 12.1233C7.51643 12.1972 7.48177 12.2946 7.48682 12.394C7.49187 12.4935 7.53622 12.5869 7.61012 12.6536C7.68401 12.7204 7.7814 12.755 7.88086 12.75H12.8496H16.125C16.1747 12.7507 16.224 12.7415 16.2701 12.723C16.3163 12.7044 16.3582 12.6769 16.3936 12.642C16.429 12.6071 16.4571 12.5656 16.4763 12.5197C16.4955 12.4739 16.5053 12.4247 16.5053 12.375C16.5053 12.3253 16.4955 12.2761 16.4763 12.2302C16.4571 12.1844 16.429 12.1428 16.3936 12.1079C16.3582 12.073 16.3163 12.0455 16.2701 12.027C16.224 12.0085 16.1747 11.9993 16.125 12H12.8496H7.88086C7.86817 11.9993 7.85546 11.9993 7.84277 12ZM7.84277 13.5C7.74332 13.505 7.64994 13.5494 7.58319 13.6233C7.51643 13.6972 7.48177 13.7946 7.48682 13.894C7.49187 13.9935 7.53622 14.0869 7.61012 14.1536C7.68401 14.2204 7.7814 14.255 7.88086 14.25H12.8496H16.125C16.1747 14.2507 16.224 14.2415 16.2701 14.223C16.3163 14.2044 16.3582 14.1769 16.3936 14.142C16.429 14.1071 16.4571 14.0656 16.4763 14.0197C16.4955 13.9739 16.5053 13.9247 16.5053 13.875C16.5053 13.8253 16.4955 13.7761 16.4763 13.7302C16.4571 13.6844 16.429 13.6428 16.3936 13.6079C16.3582 13.573 16.3163 13.5455 16.2701 13.527C16.224 13.5085 16.1747 13.4993 16.125 13.5H12.8496H7.88086C7.86817 13.4993 7.85546 13.4993 7.84277 13.5ZM7.84277 15C7.74332 15.005 7.64994 15.0494 7.58319 15.1233C7.51643 15.1972 7.48177 15.2946 7.48682 15.394C7.49187 15.4935 7.53622 15.5869 7.61012 15.6536C7.68401 15.7204 7.7814 15.755 7.88086 15.75H11.1562H13.125C13.1747 15.7507 13.224 15.7415 13.2701 15.723C13.3163 15.7044 13.3582 15.6769 13.3936 15.642C13.429 15.6071 13.4571 15.5656 13.4763 15.5197C13.4955 15.4739 13.5053 15.4247 13.5053 15.375C13.5053 15.3253 13.4955 15.2761 13.4763 15.2302C13.4571 15.1844 13.429 15.1428 13.3936 15.1079C13.3582 15.073 13.3163 15.0455 13.2701 15.027C13.224 15.0085 13.1747 14.9993 13.125 15H11.1562H7.88086C7.86817 14.9993 7.85546 14.9993 7.84277 15ZM14.5869 15C14.4875 15.005 14.3941 15.0494 14.3273 15.1233C14.2606 15.1972 14.2259 15.2946 14.231 15.394C14.236 15.4935 14.2804 15.5869 14.3543 15.6536C14.4282 15.7204 14.5255 15.755 14.625 15.75C14.6747 15.7507 14.724 15.7415 14.7701 15.723C14.8163 15.7044 14.8582 15.6769 14.8936 15.642C14.929 15.6071 14.9571 15.5656 14.9763 15.5197C14.9955 15.4739 15.0053 15.4247 15.0053 15.375C15.0053 15.3253 14.9955 15.2761 14.9763 15.2302C14.9571 15.1844 14.929 15.1428 14.8936 15.1079C14.8582 15.073 14.8163 15.0455 14.7701 15.027C14.724 15.0085 14.6747 14.9993 14.625 15C14.6123 14.9993 14.5996 14.9993 14.5869 15Z" fill="black"/>
</svg>
