<svg width="30" height="30" viewBox="0 0 30 30" fill="none" xmlns="http://www.w3.org/2000/svg">
<path d="M12.4193 5.2308C10.7179 5.73584 9.61559 6.33708 8.34554 7.49146L7.14738 8.57369V7.61171C7.14738 6.84212 7.05153 6.60163 6.66811 6.48138C5.73355 6.19278 5.46995 6.74592 5.46995 8.98253C5.46995 10.2812 5.58977 11.1951 5.75751 11.3634C5.92525 11.5318 6.83586 11.652 8.12987 11.652C10.3585 11.652 10.9096 11.3875 10.622 10.4495C10.5022 10.0648 10.2626 9.96856 9.51974 9.96856C8.68103 9.96856 8.58517 9.92046 8.80084 9.53567C9.20822 8.79013 11.4847 7.37121 12.9944 6.93832C18.9133 5.25485 24.7843 11.147 23.1069 17.0872C22.3401 19.7327 20.4709 21.825 17.9069 22.8832C16.2055 23.5806 13.3778 23.4603 11.6525 22.6186C8.99255 21.344 7.29116 19.0112 6.78793 16.005C6.50037 14.2975 6.02111 13.7443 5.35013 14.2975C4.70313 14.8266 4.99069 17.2556 5.90129 19.2036C6.93171 21.3921 8.51328 23.0034 10.7179 24.1097C12.4433 24.9755 12.611 24.9995 15.0553 24.9995C17.4995 24.9995 17.6672 24.9755 19.3926 24.1097C21.6212 23.0034 23.1788 21.4161 24.2332 19.1555C24.9521 17.6644 25 17.3518 25 15.019C25 12.6862 24.9521 12.3735 24.2332 10.8824C23.1788 8.64584 21.5972 7.03452 19.4645 5.97634C17.9548 5.20675 17.4516 5.08651 15.6064 5.01436C14.3124 4.96626 13.0903 5.03841 12.4193 5.2308Z" fill="black"/>
<path d="M14.0005 9.87229C13.7608 10.5216 13.8327 16.2214 14.0963 16.7264C14.3359 17.1353 14.6235 17.1833 16.6843 17.1833C17.9544 17.1833 19.1525 17.0872 19.3203 16.9669C19.512 16.8707 19.6079 16.51 19.5599 16.1973C19.488 15.6442 19.3922 15.6201 17.6429 15.548L15.7737 15.4758V12.8544C15.7737 11.4355 15.7018 10.0887 15.63 9.87229C15.5341 9.65585 15.1986 9.4875 14.8152 9.4875C14.4318 9.4875 14.0963 9.65585 14.0005 9.87229Z" fill="black"/>
</svg>
