<svg width="24" height="24" viewBox="0 0 24 24" fill="none" xmlns="http://www.w3.org/2000/svg">
<path d="M22.1813 8.90623C22.1813 7.86561 21.3282 7.01248 20.2875 7.01248C19.2469 7.01248 18.3938 7.86561 18.3938 8.90623C18.3938 9.25311 18.4969 9.58123 18.6657 9.86248L16.1157 12.4125C15.8532 12.2812 15.5625 12.1969 15.2532 12.1969C14.8594 12.1969 14.5032 12.3187 14.1938 12.5156L11.6344 9.96561C11.8407 9.66561 11.9625 9.29998 11.9625 8.90623C11.9625 7.86561 11.1094 7.01248 10.0688 7.01248C9.02817 7.01248 8.17505 7.86561 8.17505 8.90623C8.17505 9.21561 8.25942 9.50623 8.39067 9.75936L5.6813 12.4687C5.40005 12.3 5.07192 12.1969 4.72505 12.1969C3.68442 12.1969 2.8313 13.05 2.8313 14.0906C2.8313 15.1312 3.68442 15.9844 4.72505 15.9844C5.76567 15.9844 6.6188 15.1312 6.6188 14.0906C6.6188 13.7437 6.51567 13.4156 6.34692 13.1344L9.00942 10.4719C9.30942 10.6781 9.67505 10.8 10.0688 10.8C10.3782 10.8 10.6688 10.7156 10.9219 10.5844L13.5657 13.2281C13.4344 13.4906 13.35 13.7812 13.35 14.0906C13.35 15.1312 14.2032 15.9844 15.2438 15.9844C16.2844 15.9844 17.1375 15.1312 17.1375 14.0906C17.1375 13.6969 17.0157 13.3312 16.8188 13.0312L19.3219 10.5281C19.6032 10.6969 19.9313 10.8 20.2782 10.8C21.3282 10.8 22.1813 9.94686 22.1813 8.90623ZM4.72505 15.0375C4.20005 15.0375 3.7688 14.6062 3.7688 14.0812C3.7688 13.5562 4.20005 13.125 4.72505 13.125C4.98755 13.125 5.22192 13.2281 5.40005 13.4062C5.5688 13.575 5.6813 13.8187 5.6813 14.0812C5.6813 14.6156 5.25005 15.0375 4.72505 15.0375ZM10.0688 9.85311C9.5438 9.85311 9.11255 9.42186 9.11255 8.89686C9.11255 8.37186 9.5438 7.94061 10.0688 7.94061C10.5938 7.94061 11.025 8.37186 11.025 8.89686C11.025 9.43123 10.5938 9.85311 10.0688 9.85311ZM15.2532 15.0375C14.7282 15.0375 14.2969 14.6062 14.2969 14.0812C14.2969 13.5562 14.7282 13.125 15.2532 13.125C15.7782 13.125 16.2094 13.5562 16.2094 14.0812C16.2 14.6156 15.7782 15.0375 15.2532 15.0375ZM19.6125 9.57186C19.4438 9.40311 19.3313 9.15936 19.3313 8.89686C19.3313 8.37186 19.7625 7.94061 20.2875 7.94061C20.8125 7.94061 21.2438 8.37186 21.2438 8.89686C21.2438 9.42186 20.8125 9.85311 20.2875 9.85311C20.025 9.85311 19.7813 9.74998 19.6125 9.57186Z" fill="black"/>
<path d="M0.890649 19.9406C1.1719 19.9406 1.3969 19.7156 1.3969 19.4344V2.07186C1.3969 1.79061 1.1719 1.56561 0.890649 1.56561C0.609399 1.56561 0.384399 1.79061 0.384399 2.07186V19.4344C0.384399 19.7156 0.609399 19.9406 0.890649 19.9406Z" fill="black"/>
<path d="M3.5344 21.4219H0.890649C0.609399 21.4219 0.384399 21.6469 0.384399 21.9281C0.384399 22.2094 0.609399 22.4344 0.890649 22.4344H3.54377C3.82502 22.4344 4.05002 22.2094 4.05002 21.9281C4.05002 21.6469 3.81565 21.4219 3.5344 21.4219Z" fill="black"/>
<path d="M8.4282 21.4219H5.78445C5.5032 21.4219 5.2782 21.6469 5.2782 21.9281C5.2782 22.2094 5.5032 22.4344 5.78445 22.4344H8.43757C8.71882 22.4344 8.94382 22.2094 8.94382 21.9281C8.94382 21.6469 8.70945 21.4219 8.4282 21.4219Z" fill="black"/>
<path d="M13.3219 21.4219H10.6687C10.3875 21.4219 10.1625 21.6469 10.1625 21.9281C10.1625 22.2094 10.3875 22.4344 10.6687 22.4344H13.3219C13.6031 22.4344 13.8281 22.2094 13.8281 21.9281C13.8281 21.6469 13.6031 21.4219 13.3219 21.4219Z" fill="black"/>
<path d="M18.2156 21.4219H15.5625C15.2813 21.4219 15.0563 21.6469 15.0563 21.9281C15.0563 22.2094 15.2813 22.4344 15.5625 22.4344H18.2156C18.4969 22.4344 18.7219 22.2094 18.7219 21.9281C18.7219 21.6469 18.4969 21.4219 18.2156 21.4219Z" fill="black"/>
<path d="M23.1094 21.4219H20.4563C20.1751 21.4219 19.9501 21.6469 19.9501 21.9281C19.9501 22.2094 20.1751 22.4344 20.4563 22.4344H23.1094C23.3907 22.4344 23.6157 22.2094 23.6157 21.9281C23.6157 21.6469 23.3907 21.4219 23.1094 21.4219Z" fill="black"/>
</svg>
