<svg width="24" height="24" viewBox="0 0 24 24" fill="none" xmlns="http://www.w3.org/2000/svg">
<path fill-rule="evenodd" clip-rule="evenodd" d="M13.5 16.4993V18C13.5 18.597 13.263 19.1693 12.8407 19.5907C12.4193 20.013 11.847 20.25 11.25 20.25C9.6255 20.25 7.6245 20.25 6 20.25C5.403 20.25 4.83075 20.013 4.40925 19.5907C3.987 19.1693 3.75 18.597 3.75 18V6C3.75 5.403 3.987 4.83075 4.40925 4.40925C4.83075 3.987 5.403 3.75 6 3.75C7.6245 3.75 9.6255 3.75 11.25 3.75C12.4928 3.75 13.5 4.75725 13.5 6V7.45575C13.5 7.86975 13.836 8.20575 14.25 8.20575C14.664 8.20575 15 7.86975 15 7.45575V6C15 3.92925 13.3208 2.25 11.25 2.25C9.6255 2.25 7.6245 2.25 6 2.25C5.0055 2.25 4.0515 2.64525 3.348 3.348C2.64525 4.0515 2.25 5.0055 2.25 6C2.25 9.32925 2.25 14.6707 2.25 18C2.25 18.9945 2.64525 19.9485 3.348 20.652C4.0515 21.3547 5.0055 21.75 6 21.75C7.6245 21.75 9.6255 21.75 11.25 21.75C12.2445 21.75 13.1985 21.3547 13.902 20.652C14.6047 19.9485 15 18.9945 15 18C15 17.1735 15 16.4993 15 16.4993C15 16.0853 14.664 15.7493 14.25 15.7493C13.836 15.7493 13.5 16.0853 13.5 16.4993Z" fill="black"/>
<path fill-rule="evenodd" clip-rule="evenodd" d="M19.8271 11.2499H6.91956C6.50556 11.2499 6.16956 11.5859 6.16956 11.9999C6.16956 12.4139 6.50556 12.7499 6.91956 12.7499H19.8533L16.8781 15.7252C16.5848 16.0184 16.5848 16.4932 16.8781 16.7864C17.1706 17.0789 17.6461 17.0789 17.9386 16.7864C17.9386 16.7864 19.8638 14.8612 21.1208 13.6042C21.9991 12.7252 21.9991 11.3009 21.1208 10.4219L17.9386 7.24045C17.6461 6.9472 17.1706 6.9472 16.8781 7.24045C16.5848 7.53295 16.5848 8.00844 16.8781 8.30094L19.8271 11.2499Z" fill="black"/>
</svg>
