<svg width="24" height="24" viewBox="0 0 24 24" fill="none" xmlns="http://www.w3.org/2000/svg">
<path d="M8.95196 2.73602C5.80796 3.50402 3.14396 5.52002 1.87196 8.11202C1.15196 9.57602 1.07996 9.88802 1.07996 12C1.07996 14.112 1.15196 14.424 1.84796 15.84L2.61596 17.4L1.91996 18.936C1.10396 20.64 1.03196 21.168 1.55996 21.6C2.25596 22.176 7.22396 21.048 7.53596 20.232C7.84796 19.44 7.27196 19.344 5.47196 19.872C3.16796 20.52 2.59196 20.64 2.68796 20.448C3.95996 18.072 4.05596 17.16 3.11996 15.504C0.383956 10.656 3.91196 4.89602 10.272 3.79202C16.032 2.80802 21.84 6.93602 21.84 12C21.84 16.944 16.032 21.168 10.512 20.232C8.80796 19.944 8.39996 20.04 8.39996 20.64C8.39996 21.216 8.90396 21.384 11.088 21.528C15.888 21.888 20.304 19.632 22.128 15.888C22.848 14.424 22.92 14.112 22.92 12C22.92 9.88802 22.848 9.57602 22.128 8.11202C20.016 3.79202 14.256 1.46402 8.95196 2.73602Z" fill="black"/>
<path d="M9.8879 7.56004C9.0719 8.25604 8.7359 9.24005 9.1439 9.74404C9.5999 10.296 10.0559 10.128 10.4159 9.24005C11.0399 7.75204 13.2239 7.89604 13.3919 9.45604C13.4639 10.008 13.2479 10.344 12.2639 11.256C11.2319 12.216 11.0399 12.528 11.0399 13.248C11.0399 13.824 11.1599 14.16 11.4239 14.256C11.9519 14.448 12.4799 13.992 12.4799 13.32C12.4799 12.984 12.8879 12.432 13.6559 11.808C14.9039 10.752 15.1679 10.032 14.8319 8.68805C14.3759 7.00804 11.3519 6.31204 9.8879 7.56004Z" fill="black"/>
<path d="M11.0399 15.72C10.8959 15.912 10.8239 16.272 10.9199 16.56C11.1359 17.232 12.3839 17.232 12.5999 16.56C12.7919 15.96 12.3599 15.36 11.7599 15.36C11.5199 15.36 11.2079 15.528 11.0399 15.72Z" fill="black"/>
</svg>
