<svg width="24" height="24" viewBox="0 0 24 24" fill="none" xmlns="http://www.w3.org/2000/svg">
<path d="M1.58396 4.94399C1.18362 5.35973 0.959961 5.91443 0.959961 6.49159V12V17.5084C0.959961 18.0856 1.18362 18.6403 1.58396 19.056C1.9997 19.4563 2.5544 19.68 3.13156 19.68H12H20.8684C21.4455 19.68 22.0002 19.4563 22.416 19.056C22.8163 18.6403 23.04 18.0856 23.04 17.5084V12V6.49159C23.04 5.91443 22.8163 5.35973 22.416 4.94399C22.0002 4.54365 21.4455 4.31999 20.8684 4.31999H12H3.13156C2.5544 4.31999 1.9997 4.54365 1.58396 4.94399ZM21.528 5.83199C21.912 6.21599 21.96 6.81599 21.96 12C21.96 17.184 21.912 17.784 21.528 18.168C21.144 18.576 20.424 18.6 12 18.6C3.57596 18.6 2.85596 18.576 2.47196 18.168C2.08796 17.784 2.03996 17.16 1.96796 12.408C1.89596 6.74399 2.01596 5.90399 2.92796 5.51999C3.23996 5.39999 7.29596 5.32799 12.288 5.35199C20.4 5.39999 21.144 5.42399 21.528 5.83199Z" fill="black"/>
<path d="M3.93601 7.99198C3.86401 8.18398 3.84001 8.92798 3.88801 9.62398L3.96001 10.92H5.76001H7.56001V9.35998V7.79998L5.80801 7.72798C4.48801 7.67998 4.03201 7.72798 3.93601 7.99198ZM6.72001 9.35998C6.72001 10.032 6.67201 10.08 5.76001 10.08C4.84801 10.08 4.80001 10.032 4.80001 9.35998C4.80001 8.68798 4.84801 8.63998 5.76001 8.63998C6.67201 8.63998 6.72001 8.68798 6.72001 9.35998Z" fill="black"/>
<path d="M12.84 8.87998C12.48 9.47998 13.152 9.59998 16.584 9.59998C19.992 9.59998 20.16 9.57598 20.16 9.11998C20.16 8.66398 19.992 8.63998 16.584 8.63998C14.448 8.63998 12.936 8.73598 12.84 8.87998Z" fill="black"/>
<path d="M3.71996 13.68C3.40796 14.184 3.93596 14.4 5.54396 14.4C7.03196 14.4 7.19996 14.352 7.19996 13.92C7.19996 13.488 7.03196 13.44 5.54396 13.44C4.60796 13.44 3.79196 13.536 3.71996 13.68Z" fill="black"/>
<path d="M8.0399 13.68C7.7279 14.184 8.2559 14.4 9.8639 14.4C11.3519 14.4 11.5199 14.352 11.5199 13.92C11.5199 13.488 11.3519 13.44 9.8639 13.44C8.9279 13.44 8.1119 13.536 8.0399 13.68Z" fill="black"/>
<path d="M12.36 13.68C12.048 14.184 12.576 14.4 14.184 14.4C15.672 14.4 15.84 14.352 15.84 13.92C15.84 13.488 15.672 13.44 14.184 13.44C13.248 13.44 12.432 13.536 12.36 13.68Z" fill="black"/>
<path d="M16.6799 13.68C16.3679 14.184 16.8959 14.4 18.5039 14.4C19.9919 14.4 20.1599 14.352 20.1599 13.92C20.1599 13.488 19.9919 13.44 18.5039 13.44C17.5679 13.44 16.7519 13.536 16.6799 13.68Z" fill="black"/>
<path d="M3.72001 16.08C3.36001 16.68 4.03201 16.8 7.46401 16.8C10.872 16.8 11.04 16.776 11.04 16.32C11.04 15.864 10.872 15.84 7.46401 15.84C5.32801 15.84 3.81601 15.936 3.72001 16.08Z" fill="black"/>
</svg>
