<svg width="24" height="24" viewBox="0 0 24 24" fill="none" xmlns="http://www.w3.org/2000/svg">
<g clip-path="url(#clip0_38_80)">
<path d="M9.95996 1.34398C9.57596 1.55998 9.02396 1.99198 8.73596 2.32798C8.32796 2.78398 7.96796 2.92798 7.00796 2.97598C4.72796 3.11998 3.11996 4.72798 2.97596 7.00798C2.92796 7.96798 2.78396 8.32798 2.32796 8.73598C1.43996 9.47998 0.959961 10.632 0.959961 12C0.959961 13.368 1.43996 14.52 2.32796 15.264C2.78396 15.672 2.92796 16.032 2.97596 16.992C3.11996 19.272 4.72796 20.88 7.00796 21.024C7.96796 21.072 8.32796 21.216 8.73596 21.672C10.272 23.52 13.728 23.52 15.264 21.672C15.672 21.216 16.032 21.072 16.992 21.024C19.272 20.88 20.88 19.272 21.024 16.992C21.072 16.032 21.216 15.672 21.672 15.264C22.56 14.52 23.04 13.368 23.04 12C23.04 10.632 22.56 9.47998 21.672 8.73598C21.216 8.32798 21.072 7.96798 21.024 7.00798C20.88 4.72798 19.272 3.11998 16.992 2.97598C16.032 2.92798 15.672 2.78398 15.264 2.32798C14.976 1.99198 14.424 1.55998 13.992 1.34398C13.032 0.863983 10.896 0.863983 9.95996 1.34398ZM13.416 2.54398C13.752 2.73598 14.28 3.26398 14.568 3.69598C15.048 4.46398 15.144 4.48798 16.272 4.36798C18.528 4.15198 19.848 5.47198 19.632 7.72798C19.512 8.85598 19.536 8.95198 20.304 9.43198C22.344 10.776 22.344 13.224 20.304 14.568C19.536 15.048 19.512 15.144 19.632 16.272C19.848 18.528 18.528 19.848 16.272 19.632C15.144 19.512 15.048 19.536 14.568 20.304C13.224 22.344 10.776 22.344 9.43196 20.304C8.95196 19.536 8.85596 19.512 7.72796 19.632C5.47196 19.848 4.15196 18.528 4.36796 16.272C4.48796 15.144 4.46396 15.048 3.69596 14.568C1.63196 13.2 1.65596 10.656 3.76796 9.35998C4.43996 8.95198 4.48796 8.85598 4.39196 7.75198C4.24796 6.28798 4.72796 5.20798 5.80796 4.65598C6.31196 4.39198 6.93596 4.29598 7.75196 4.39198C8.85596 4.48798 8.95196 4.43998 9.35996 3.76798C10.272 2.27998 12.048 1.72798 13.416 2.54398Z" fill="black"/>
<path d="M13.32 11.28L10.44 14.16L9.07202 12.792C7.70402 11.448 7.68002 11.424 7.20002 11.88C6.69602 12.336 6.69602 12.336 8.44802 14.088C9.40802 15.048 10.296 15.84 10.44 15.84C10.584 15.84 12.168 14.352 13.992 12.528C17.184 9.336 17.28 9.192 16.848 8.808C16.608 8.592 16.344 8.4 16.296 8.4C16.248 8.4 14.904 9.696 13.32 11.28Z" fill="black"/>
</g>
<defs>
<clipPath id="clip0_38_80">
<rect width="24" height="24" fill="white"/>
</clipPath>
</defs>
</svg>
