<svg width="22" height="22" viewBox="0 0 22 22" fill="none" xmlns="http://www.w3.org/2000/svg">
<path fill-rule="evenodd" clip-rule="evenodd" d="M9.56542 0.280462C9.69154 0.332277 9.79941 0.420427 9.87531 0.533705C9.95121 0.646984 9.99171 0.780273 9.99167 0.916629V1.81313L10.9844 1.81221H11.0532C12.9525 1.81221 14.4494 1.81221 15.6191 1.97171C16.8199 2.1358 17.7788 2.47955 18.5313 3.24313C19.283 4.0058 19.6194 4.97563 19.7808 6.18929C19.9375 7.37454 19.9375 8.89346 19.9375 10.823V10.9266C19.9375 12.8562 19.9375 14.3742 19.7808 15.5595C19.6194 16.775 19.283 17.743 18.5313 18.5056C17.7797 19.2701 16.8208 19.6139 15.6191 19.778C14.4494 19.9375 12.9525 19.9375 11.0532 19.9375H10.9468C9.0475 19.9375 7.55058 19.9375 6.38092 19.778C5.18008 19.613 4.22125 19.2701 3.46867 18.5056C2.717 17.743 2.38058 16.775 2.21925 15.5595C2.0625 14.3742 2.0625 12.8562 2.0625 10.9266V10.823C2.0625 8.89254 2.0625 7.37454 2.21925 6.18929C2.38058 4.97471 2.717 4.0058 3.46867 3.24313C3.53166 3.17718 3.60715 3.12442 3.69073 3.08792C3.77431 3.05143 3.86432 3.03193 3.95551 3.03056C4.0467 3.02919 4.13726 3.04598 4.2219 3.07995C4.30654 3.11392 4.38357 3.16439 4.44851 3.22842C4.51346 3.29245 4.56501 3.36877 4.60018 3.45292C4.63534 3.53707 4.65341 3.62737 4.65333 3.71858C4.65325 3.80978 4.63503 3.90005 4.59972 3.98414C4.56441 4.06823 4.51272 4.14446 4.44767 4.20838C3.99117 4.67221 3.7235 5.30379 3.58233 6.36988C3.43933 7.45429 3.4375 8.88155 3.4375 10.8744C3.4375 12.8681 3.43933 14.2945 3.58233 15.3798C3.7235 16.445 3.99117 17.0775 4.44767 17.5413C4.90325 18.0033 5.522 18.2728 6.567 18.4158C7.63308 18.5606 9.03558 18.5625 11 18.5625C12.9644 18.5625 14.3669 18.5606 15.433 18.4158C16.478 18.2728 17.0968 18.0033 17.5523 17.5413C18.0088 17.0775 18.2765 16.445 18.4177 15.3798C18.5616 14.2945 18.5625 12.8681 18.5625 10.8744C18.5625 8.88155 18.5607 7.45521 18.4177 6.36988C18.2765 5.30379 18.0088 4.67221 17.5523 4.20838C17.0968 3.74638 16.4789 3.47688 15.433 3.33388C14.3669 3.18813 12.9644 3.18721 11 3.18721H9.99167V4.17446C9.99155 4.31079 9.95091 4.44401 9.8749 4.55719C9.79888 4.67036 9.69094 4.75839 9.56479 4.81007C9.43863 4.86175 9.29996 4.87475 9.16639 4.84743C9.03282 4.82011 8.9104 4.7537 8.81467 4.65663L7.2105 3.02771C7.08398 2.89912 7.01307 2.72594 7.01307 2.54555C7.01307 2.36515 7.08398 2.19197 7.2105 2.06338L8.81467 0.434462C8.91039 0.337173 9.0329 0.270575 9.16659 0.243149C9.30029 0.215724 9.43913 0.228713 9.56542 0.280462Z" fill="black"/>
<path d="M14.6941 9.19409C14.8155 9.06376 14.8816 8.89138 14.8785 8.71328C14.8753 8.53517 14.8032 8.36523 14.6772 8.23927C14.5513 8.11331 14.3813 8.04115 14.2032 8.03801C14.0251 8.03487 13.8527 8.10098 13.7224 8.22242L9.6249 12.3199L8.2774 10.9724C8.21446 10.9049 8.13856 10.8507 8.05422 10.8131C7.96989 10.7755 7.87885 10.7553 7.78654 10.7537C7.69423 10.7521 7.60254 10.7691 7.51693 10.8036C7.43133 10.8382 7.35356 10.8897 7.28828 10.955C7.22299 11.0203 7.17153 11.098 7.13695 11.1836C7.10237 11.2692 7.08539 11.3609 7.08702 11.4532C7.08865 11.5455 7.10885 11.6366 7.14643 11.7209C7.18401 11.8052 7.23818 11.8811 7.30573 11.9441L9.13906 13.7774C9.26797 13.9062 9.44271 13.9785 9.6249 13.9785C9.80708 13.9785 9.98182 13.9062 10.1107 13.7774L14.6941 9.19409Z" fill="black"/>
</svg>
