<svg width="52" height="59" viewBox="0 0 52 59" fill="none" xmlns="http://www.w3.org/2000/svg">
<path d="M26.2075 0.700012C23.9776 0.700012 23.1299 2.48482 23.3024 5.94253C23.417 8.22189 24.1847 14.5765 20.9676 17.7966C17.9673 20.7984 17.0947 20.5318 13.676 24.4081C10.2587 28.283 7.41024 27.4859 3.4227 27.1433C-1.58659 26.7137 0.119991 54.5246 3.65052 54.0425C6.15654 53.6999 11.8534 53.0161 12.7647 53.0161C13.676 53.0161 19.9252 57.8594 25.4108 57.9174C34.2958 58.0099 39.196 56.4351 39.196 56.4351L41.8001 50.5254L42.6713 32.506L38.5112 23.8375C38.5112 23.8375 32.9289 24.7493 31.3342 22.242C29.7394 19.7347 32.5879 16.6569 32.5879 9.47622C32.5879 2.29556 27.3466 0.700012 26.2075 0.700012Z" fill="url(#paint0_linear_170_2499)"/>
<path d="M39.5065 56.3827L39.1682 55.149C38.1672 55.0427 36.879 55.4985 35.1199 55.4847C26.7182 55.4198 18.6864 53.0065 15.2401 50.2768C12.9826 48.4892 11.9927 46.1104 10.3979 46.7942C8.43037 47.6382 2.84807 48.9506 0.794922 46.3508C1.36931 50.7989 2.39381 54.2138 3.65027 54.0425C6.1563 53.6999 11.8532 53.0161 12.7645 53.0161C13.6758 53.0161 19.751 57.7323 25.4106 57.9174C32.7326 58.1564 39.2359 56.8952 39.2359 56.8952L39.5065 56.3827Z" fill="url(#paint1_linear_170_2499)"/>
<path d="M6.98099 28.8992C10.2851 29.8109 12.3838 28.3024 14.0724 26.2496C15.75 24.2106 17.2053 22.4023 21.4207 19.6671C25.636 16.9318 25.0948 9.40855 24.7524 6.90125C24.4099 4.39396 24.6378 0.700012 26.2076 0.700012C23.9778 0.700012 23.13 2.48482 23.3026 5.94254C23.4172 8.2219 24.1849 14.5765 20.9678 17.7966C17.9675 20.7984 17.0948 20.5318 13.6761 24.4081C10.2588 28.283 7.4104 27.4859 3.42285 27.1434C3.42423 28.0081 3.67691 27.9874 6.98099 28.8992Z" fill="url(#paint2_linear_170_2499)"/>
<path d="M31.334 22.242C29.7392 19.7347 32.5877 16.6569 32.5877 9.47623C32.5877 2.29556 27.3478 0.700012 26.2073 0.700012C25.9077 0.700012 25.6412 0.733167 25.4023 0.796712C30.0499 1.08819 32.8486 6.95236 31.247 12.9989C29.9477 17.9057 29.3001 21.84 31.4223 24.147C32.7948 25.6403 35.5245 25.3861 38.5124 23.8376C38.511 23.8376 32.9287 24.7493 31.334 22.242Z" fill="url(#paint3_linear_170_2499)"/>
<path d="M31.6473 24.8004C28.9135 25.7122 22.0084 27.8575 16.7782 32.6027C3.52322 44.6281 26.1534 46.1352 30.8272 56.4199C31.7205 58.3857 36.9424 46.1103 36.9424 46.1103L38.6311 43.2674L33.7516 30.2667L31.6473 24.8004Z" fill="url(#paint4_linear_170_2499)"/>
<path d="M32.0491 25.8422C29.3152 26.754 18.1465 33.9125 18.1465 37.4476C18.1465 47.6495 25.8813 42.6142 30.0622 54.652C30.6407 56.3193 32.6856 57.7215 32.6856 57.7215C34.3797 56.3387 36.9438 46.1106 36.9438 46.1106L38.6324 43.2676L33.7529 30.2669L32.0491 25.8422Z" fill="url(#paint5_linear_170_2499)"/>
<path d="M38.359 57.1106L43.592 51.1248L44.7449 26.1195L31.6459 24.7989C28.6386 26.4179 28.2907 28.6324 29.4077 32.1882C29.8772 33.6843 27.9676 34.1125 27.8447 38.4709C27.7591 41.4921 29.7363 41.5059 29.7363 42.4039C29.7363 43.3018 28.7519 43.2217 28.4246 45.8229C27.9579 49.5445 31.0729 49.6163 31.0729 50.412C31.0729 51.2077 29.3428 51.6802 29.4491 54.7138C29.5844 58.5611 22.4433 57.7833 17.6149 54.2828C15.6322 52.8447 13.9021 52.6969 12.5518 53.0229C12.636 53.0188 12.7078 53.016 12.7616 53.016C13.6729 53.016 19.7937 57.9173 25.4077 57.9173C31.9731 57.9173 36.5129 57.5333 38.359 57.1106Z" fill="url(#paint6_linear_170_2499)"/>
<path d="M39.563 26.4484C35.5188 26.4484 33.2972 30.402 34.8354 33.4398C36.3735 36.4775 31.9869 40.4989 32.4426 42.4785C32.8982 44.4581 33.6963 49.4685 34.3217 50.2974C34.9486 51.1262 33.2958 53.0063 33.2958 53.0063L38.4225 53.6335L43.2067 51.5227L43.0355 37.0495L43.5478 27.9873L39.563 26.4484Z" fill="url(#paint7_linear_170_2499)"/>
<path d="M13.6755 24.408C11.4553 26.9249 9.47536 27.4706 7.26758 27.4499C7.90409 28.4777 8.34731 29.6008 8.30174 30.699C8.18162 33.5779 8.81538 37.1268 9.30001 33.4357C9.66867 30.6244 11.5741 27.1501 13.8661 24.1938C13.804 24.2643 13.7418 24.3334 13.6755 24.408Z" fill="url(#paint8_linear_170_2499)"/>
<path d="M42.6269 23.7245C37.8454 23.5422 29.249 23.2714 29.057 28.2833C28.919 31.9178 31.4954 33.11 35.4802 33.262C39.465 33.4139 41.4574 33.4899 43.1074 33.5521C44.7574 33.6142 49.9489 33.5838 50 29.195C50.0635 23.7121 42.6269 23.7245 42.6269 23.7245Z" fill="url(#paint9_linear_170_2499)"/>
<path d="M34.7623 41.8416C33.481 41.8043 29.6744 42.7644 29.3181 45.1833C29.0378 47.0856 30.0085 49.5431 33.3209 50.1233C37.5169 50.8582 44.5089 51.2437 47.1213 50.2656C48.288 49.8291 49.3056 48.6065 49.3594 46.754C49.4133 44.9015 48.0381 42.4052 45.0488 42.3182C42.0595 42.2326 40.502 42.2782 38.7982 42.0765C36.7492 41.8361 35.7868 41.872 34.7623 41.8416Z" fill="url(#paint10_linear_170_2499)"/>
<path d="M33.4272 50.296C31.9746 50.296 30.1797 51.578 30.1797 53.7151C30.1797 55.8522 30.7347 57.4339 33.8538 58.0321C36.9729 58.6302 41.9711 58.1177 43.8503 57.5196C45.3153 57.0526 45.8579 55.6822 45.8579 53.4167C45.8579 51.1511 44.4495 50.7547 42.9114 50.7547C41.3733 50.7547 39.5065 51.0351 38.4406 50.9798C35.4637 50.8223 34.8797 50.296 33.4272 50.296Z" fill="url(#paint11_linear_170_2499)"/>
<path d="M42.2195 24.7358C38.0441 24.5769 30.5371 24.3352 30.3866 28.2971C30.2775 31.1705 32.5309 32.1209 36.0103 32.2535C39.4898 32.3861 48.644 32.5533 48.6744 29.0845C48.7117 24.7496 42.2195 24.7358 42.2195 24.7358Z" fill="url(#paint12_linear_170_2499)"/>
<path d="M35.148 42.8638C34.0324 42.8321 30.9092 43.0973 30.6096 45.4085C30.4066 46.9722 31.2171 48.9808 34.1014 49.4602C37.7562 50.068 43.8425 50.3941 46.1166 49.597C47.1314 49.2406 48.0164 48.2418 48.0592 46.7236C48.1034 45.2054 46.7048 43.3446 44.1035 43.2686C41.5022 43.1926 40.1173 43.4344 38.633 43.2658C36.8491 43.0655 36.04 42.8887 35.148 42.8638Z" fill="url(#paint13_linear_170_2499)"/>
<path d="M34.0486 51.0752C32.7922 51.0752 31.2402 52.1071 31.2402 53.8284C31.2402 55.5497 31.7207 56.8233 34.4187 57.3041C37.1166 57.7848 41.4397 57.3732 43.0662 56.891C44.3323 56.5153 44.8032 55.4115 44.8032 53.5866C44.8032 51.7618 43.584 51.444 42.253 51.444C40.9219 51.444 39.3078 51.6706 38.3855 51.625C35.8091 51.4993 35.3037 51.0752 34.0486 51.0752Z" fill="url(#paint14_linear_170_2499)"/>
<path d="M33.2825 28.2995C33.386 25.5698 35.5621 24.2615 38.3111 23.6592C33.9231 23.7615 29.1983 24.582 29.0561 28.2829C28.918 31.9175 31.4944 33.1096 35.4792 33.2616C35.9183 33.2782 36.3311 33.2948 36.7233 33.3086C34.4865 32.6538 33.1734 31.177 33.2825 28.2995Z" fill="url(#paint15_linear_170_2499)"/>
<path d="M33.6576 24.1526C31.1046 24.7107 29.1468 25.9181 29.057 28.2817C28.9424 31.3029 30.7056 32.636 33.5927 33.0877C27.7357 30.749 29.8371 24.9884 33.6576 24.1526Z" fill="url(#paint16_linear_170_2499)"/>
<path d="M26.8594 52.8698C26.1843 54.4211 22.9713 54.5192 19.6824 53.0866C16.3935 51.6555 14.2754 49.2366 14.9506 47.6839C15.6258 46.1325 18.8388 46.0345 22.1277 47.467C25.4152 48.8995 27.5346 51.3184 26.8594 52.8698Z" fill="url(#paint17_radial_170_2499)"/>
<path d="M46.2091 29.0318C46.1759 31.1288 43.3731 32.1235 40.3065 32.31C37.7991 32.4619 35.0155 30.6868 35.0873 28.6381C35.1591 26.5895 35.5236 24.7743 40.7345 24.9552C43.8052 25.0616 46.2408 26.9832 46.2091 29.0318Z" fill="url(#paint18_radial_170_2499)"/>
<path d="M46.7652 47.4655C46.7473 50.3692 43.5564 49.8125 40.4898 50.0142C36.6017 50.2712 34.0238 49.0596 34.0225 47.0096C34.0197 44.9596 35.4985 43.4662 40.7135 43.4579C43.7856 43.4538 46.7873 43.7356 46.7652 47.4655Z" fill="url(#paint19_radial_170_2499)"/>
<path d="M43.9543 54.7871C43.9391 57.2627 41.0396 57.5997 38.292 57.6011C35.5443 57.6039 32.5619 56.1465 32.5605 54.3989C32.5592 52.6514 33.8805 51.3777 38.5432 51.3708C41.2895 51.3667 43.9736 51.6071 43.9543 54.7871Z" fill="url(#paint20_radial_170_2499)"/>
<path d="M32.883 45.772C33.3193 42.4662 35.8544 42.6596 38.7608 42.317C35.4153 42.067 34.0111 42.0311 34.0111 42.0311C33.699 42.0007 33.3497 41.9993 32.9866 42.0366C31.8999 42.2756 30.6683 42.7701 29.9365 43.6985C29.688 44.0521 29.4864 44.4693 29.3539 44.9638C29.3401 45.0357 29.3263 45.1089 29.318 45.1835C29.0819 47.0926 30.0083 49.5433 33.3207 50.1235C33.7984 50.2078 34.3135 50.2865 34.8533 50.3597C35.1115 50.3929 35.3932 50.4274 35.6956 50.4661C35.777 50.4758 35.8585 50.4854 35.9413 50.4951C34.1133 49.6317 32.5613 48.2019 32.883 45.772Z" fill="url(#paint21_linear_170_2499)"/>
<path d="M33.6922 42.0104C33.4672 42.0035 33.2283 42.0118 32.9839 42.0366C31.8876 42.2784 30.645 42.7799 29.9173 43.7234C29.6771 44.0715 29.4838 44.4832 29.354 44.9653C29.3402 45.0371 29.3305 45.109 29.3181 45.1836C28.9826 47.0637 29.9132 49.2795 32.8072 50.0131C27.8697 47.2889 29.9767 42.0132 33.6922 42.0104Z" fill="url(#paint22_linear_170_2499)"/>
<path d="M36.5675 50.8004C35.1081 50.5863 34.5089 50.2948 33.4291 50.2948C31.9766 50.2948 30.1816 51.5768 30.1816 53.7138C30.1816 54.4902 30.2562 55.192 30.4978 55.8012C30.7436 56.304 31.1012 56.7751 31.5914 57.1729C32.1299 57.5487 32.8616 57.8402 33.8544 58.0308C34.5213 58.1593 35.2752 58.2353 36.0649 58.2726C34.5406 57.3871 31.9586 56.9105 32.4999 53.9459C33.0978 50.6719 35.0515 51.114 36.5675 50.8004Z" fill="url(#paint23_linear_170_2499)"/>
<path d="M33.3643 50.2972C31.9241 50.3345 30.1816 51.6095 30.1816 53.7148C30.1816 55.6723 30.6497 57.1643 33.1268 57.8605C29.2579 55.3739 30.4992 51.1785 33.3643 50.2972Z" fill="url(#paint24_linear_170_2499)"/>
<path d="M50.0001 29.1945C50.0056 28.7027 49.9504 28.2565 49.8468 27.849C50.2321 29.562 48.7064 31.2639 44.6622 32.09C41.9822 32.6371 34.8645 33.3209 29.9395 31.3648C31.0026 32.6495 32.9591 33.1634 35.4803 33.2601C39.4651 33.412 41.4575 33.488 43.1075 33.5502C44.7575 33.6151 49.9476 33.5833 50.0001 29.1945Z" fill="url(#paint25_linear_170_2499)"/>
<path d="M49.3592 46.6382C49.3537 44.7981 47.9744 42.4041 45.0472 42.3198C42.0579 42.2342 40.5005 42.2797 38.7966 42.0781C36.749 41.8363 35.7866 41.8722 34.7621 41.8432C33.9875 41.8211 32.0766 42.0546 30.7773 42.8627C32.2382 43.3697 34.6185 44.1323 37.9682 43.9181C45.9944 43.4015 48.2781 44.3726 49.3592 46.6382Z" fill="url(#paint26_linear_170_2499)"/>
<path d="M33.0405 33.5502C31.3326 33.5157 28.6194 34.5214 28.549 38.0702C28.4786 41.6177 31.5811 42.4632 32.948 42.4908C34.315 42.5184 39.0937 42.8445 44.988 42.9619C50.8823 43.0793 51.6721 39.9144 51.7052 38.2567C51.7384 36.5976 50.6876 33.5986 47.1419 33.5267C36.89 33.3209 33.0405 33.5502 33.0405 33.5502Z" fill="url(#paint27_linear_170_2499)"/>
<path d="M33.9574 34.5794C32.4717 34.5504 30.1162 35.3212 30.0624 38.0578C30.0071 40.7958 32.7065 41.4534 33.8939 41.4769C35.0827 41.5003 39.2373 41.7614 44.3612 41.8637C49.4851 41.9659 50.1658 39.5263 50.1906 38.2457C50.2169 36.9665 50.0401 34.6512 46.957 34.589C38.0471 34.4122 33.9574 34.5794 33.9574 34.5794Z" fill="url(#paint28_linear_170_2499)"/>
<path d="M32.2149 37.7277C32.3861 34.0849 34.928 34.0739 37.7971 33.4453C34.442 33.466 33.0405 33.5489 33.0405 33.5489C31.3326 33.5144 28.6194 34.5201 28.549 38.069C28.4786 41.6165 31.5811 42.4619 32.948 42.4895C33.441 42.4992 34.3785 42.5475 35.6487 42.6111C33.7544 41.8306 32.0892 40.4077 32.2149 37.7277Z" fill="url(#paint29_linear_170_2499)"/>
<path d="M48.704 38.1049C48.8227 41.0059 45.6015 41.5516 42.5321 41.698C39.4628 41.8444 36.051 40.2931 35.953 38.2458C35.8549 36.1986 37.2619 34.6376 42.47 34.3848C45.5394 34.2369 48.5521 34.3778 48.704 38.1049Z" fill="url(#paint30_radial_170_2499)"/>
<path d="M32.7216 33.5558C31.015 33.647 28.6153 34.7355 28.5491 38.0689C28.4814 41.4424 31.2815 42.3721 32.7327 42.4784C27.1172 40.2115 28.9578 33.8901 32.7216 33.5558Z" fill="url(#paint31_linear_170_2499)"/>
<path d="M51.6961 37.8977C50.956 43.1471 37.0839 42.1856 29.5879 41.0584C30.6 42.1428 32.105 42.4716 32.9486 42.4895C34.3155 42.5172 39.0942 42.8432 44.9885 42.9606C50.8829 43.078 51.6727 39.9132 51.7058 38.2555C51.7072 38.1422 51.7044 38.022 51.6961 37.8977Z" fill="url(#paint32_linear_170_2499)"/>
<path d="M44.7462 49.5872C42.0593 49.706 34.9499 50.5902 29.7666 47.8121C30.3451 48.8869 31.4649 49.8 33.3192 50.1246C37.5153 50.8596 44.5073 51.245 47.1196 50.2669C48.2864 49.8304 49.304 48.6078 49.3578 46.7553C49.1852 48.3661 47.6512 49.4588 44.7462 49.5872Z" fill="url(#paint33_linear_170_2499)"/>
<path d="M45.6525 55.421C43.892 56.7609 40.8489 57.5525 36.4582 56.8107C33.7464 56.352 31.888 56.1959 30.666 56.1628C31.1548 57.0469 32.0978 57.6962 33.8541 58.0332C36.9732 58.6314 41.9714 58.1189 43.8506 57.5207C44.8157 57.2113 45.3791 56.5095 45.6525 55.421Z" fill="url(#paint34_linear_170_2499)"/>
<path d="M30.7568 51.7921C34.0098 50.6068 35.6046 52.3654 39.0854 52.3654C42.7002 52.3654 44.4233 50.9052 45.7074 52.2936C45.3042 51.013 44.1499 50.7547 42.9114 50.7547C41.3733 50.7547 39.5065 51.0351 38.4392 50.9798C35.4624 50.8237 34.8797 50.296 33.4272 50.296C32.4869 50.296 31.4044 50.8334 30.7568 51.7921Z" fill="url(#paint35_linear_170_2499)"/>
<path d="M3.6523 54.0427C6.15832 53.7001 11.8552 53.0163 12.7665 53.0163C4.50421 47.1079 8.17833 34.5411 11.2256 28.1851C11.6536 27.2927 11.9174 26.5605 12.0596 25.9389C9.31053 28.0359 6.76723 27.4308 3.4231 27.1435C-1.58619 26.7139 0.121771 54.5248 3.6523 54.0427Z" fill="url(#paint36_linear_170_2499)"/>
<path d="M8.86121 48.333C8.00654 47.1933 8.74661 49.644 9.43145 51.4108C10.0127 52.9138 5.55436 52.0256 2.14258 52.3944C2.58855 53.4954 3.09804 54.1184 3.65172 54.0425C6.15774 53.6999 11.8546 53.0161 12.7659 53.0161C11.4805 51.9233 9.7145 49.4727 8.86121 48.333Z" fill="url(#paint37_linear_170_2499)"/>
<path d="M12.765 53.0177C12.0567 52.414 11.202 51.3973 10.4329 50.4151C10.4329 50.4151 6.28522 52.5383 1.83789 51.5396C2.35014 53.1641 2.96595 54.1366 3.65079 54.0427C6.1582 53.7015 11.8537 53.0177 12.765 53.0177Z" fill="url(#paint38_linear_170_2499)"/>
<path d="M28.4761 11.401C26.8524 11.7518 25.5366 9.5084 24.7937 6.89059C24.1862 4.74938 25.0119 2.02244 26.6066 1.71576C28.2014 1.4077 29.6732 1.39389 30.5527 5.93188C31.0691 8.60494 30.064 11.0584 28.4761 11.401Z" fill="url(#paint39_radial_170_2499)"/>
<path d="M33.3642 50.2974C32.4708 50.3913 31.6617 50.8707 31.1053 51.5296C30.5406 52.1941 30.2768 53.0616 30.3348 53.9333C30.3404 54.8105 30.4729 55.7071 30.97 56.4171C31.4629 57.1341 32.2913 57.5609 33.1267 57.8607C32.2651 57.6659 31.3635 57.3095 30.7863 56.5539C30.2009 55.8065 30.0656 54.8326 30.0366 53.9388C29.9979 53.0243 30.2893 52.0518 30.9341 51.3776C31.5595 50.6966 32.4625 50.2794 33.3642 50.2974Z" fill="#804B24"/>
<path d="M31.9311 42.3458C31.3429 42.6013 30.8003 42.9508 30.3515 43.386C29.8945 43.8156 29.6515 44.4041 29.4844 45.0009L29.4858 44.9912C29.2704 46.0798 29.4527 47.2388 30.0919 48.1436C30.716 49.0609 31.7295 49.6604 32.8065 50.0113C31.6977 49.7972 30.5807 49.2571 29.8793 48.2942C29.5328 47.8204 29.2925 47.2664 29.1765 46.6876C29.0592 46.1088 29.113 45.5037 29.2207 44.9387L29.2235 44.929C29.3988 44.3019 29.7109 43.6733 30.2259 43.2492C30.7188 42.8113 31.3236 42.5419 31.9311 42.3458Z" fill="#804B24"/>
<path d="M32.7215 33.5546C31.6652 33.6748 30.6435 34.1141 29.9158 34.8532C29.1854 35.5922 28.7906 36.6103 28.727 37.6478C28.6207 38.6811 28.7878 39.76 29.3787 40.6178C29.9614 41.4785 30.9141 42.0559 31.9331 42.3543C30.8893 42.1636 29.851 41.6484 29.191 40.7518C28.5172 39.8622 28.3391 38.6977 28.4288 37.6229C28.5172 36.5426 28.9411 35.4403 29.7557 34.6902C30.562 33.9318 31.6569 33.5657 32.7215 33.5546Z" fill="#804B24"/>
<path d="M33.6578 24.1526C32.5284 24.462 31.4059 24.8889 30.5153 25.6224C29.6178 26.3518 29.1318 27.4777 29.2064 28.6312C29.1912 29.7764 29.5654 30.9451 30.4352 31.7035C31.2926 32.4716 32.4497 32.8446 33.5916 33.0877C32.4331 32.951 31.2278 32.6609 30.2847 31.8762C29.3196 31.1026 28.9095 29.8206 28.9081 28.634C28.846 27.428 29.3886 26.1653 30.3717 25.4442C31.3354 24.7052 32.5049 24.357 33.6578 24.1526Z" fill="#804B24"/>
<path d="M29.7686 47.8108C30.5459 49.1577 32.0399 49.8553 33.5158 50.0542C35.0181 50.2863 36.5314 50.4451 38.0488 50.5418C39.5634 50.6703 41.0836 50.7504 42.6038 50.7449C43.3632 50.7353 44.124 50.7159 44.8792 50.6413C45.6345 50.5805 46.3967 50.5032 47.1229 50.2642C45.6856 50.8043 44.1267 50.89 42.6079 50.9439C41.0809 50.9825 39.5524 50.9397 38.0281 50.8402C36.5065 50.709 34.9891 50.517 33.4841 50.2504C32.7275 50.126 31.9736 49.8912 31.3108 49.4878C30.6508 49.0803 30.1096 48.4932 29.7686 47.8108Z" fill="#804B24"/>
<path d="M29.5879 41.0583C30.1706 41.6385 30.9203 42.0212 31.7032 42.2159C32.4819 42.4494 33.3007 42.3983 34.1236 42.4356L39.0376 42.5779L43.9489 42.8196C45.5781 42.9191 47.2364 42.9412 48.798 42.4066C47.2764 43.0559 45.5671 43.1083 43.9447 43.0186L39.0307 42.8763L34.1194 42.6331C33.3117 42.5779 32.4626 42.6166 31.6631 42.3555C30.8734 42.1082 30.1347 41.673 29.5879 41.0583Z" fill="#804B24"/>
<path d="M47.1417 33.5257C45.9667 33.5285 44.7903 33.5616 43.6153 33.5506L40.0903 33.5575L36.5667 33.6058C35.3931 33.6127 34.2167 33.6196 33.0472 33.6666H33.0376C31.8819 33.6473 30.6848 34.0424 29.8522 34.8698C29.0031 35.689 28.6027 36.8812 28.5488 38.0692C28.5585 37.4738 28.622 36.8729 28.8043 36.2968C28.9893 35.7222 29.3055 35.1848 29.7349 34.7524C30.5909 33.8724 31.8253 33.4359 33.0431 33.4331H33.0334C35.3876 33.2909 37.739 33.2895 40.0903 33.3268C42.4431 33.353 44.7931 33.3972 47.1417 33.5257Z" fill="#804B24"/>
<defs>
<linearGradient id="paint0_linear_170_2499" x1="38.6962" y1="28.8347" x2="21.558" y2="29.5224" gradientUnits="userSpaceOnUse">
<stop offset="0.00132565" stop-color="#FFCB4B"/>
<stop offset="1" stop-color="#FFD748"/>
</linearGradient>
<linearGradient id="paint1_linear_170_2499" x1="20.1976" y1="52.5995" x2="19.853" y2="43.5872" gradientUnits="userSpaceOnUse">
<stop offset="0.00132565" stop-color="#FFCB4B"/>
<stop offset="1" stop-color="#FFD748"/>
</linearGradient>
<linearGradient id="paint2_linear_170_2499" x1="18.001" y1="18.6724" x2="30.9116" y2="37.1312" gradientUnits="userSpaceOnUse">
<stop offset="0.00132565" stop-color="#FFCB4B"/>
<stop offset="1" stop-color="#FFD748"/>
</linearGradient>
<linearGradient id="paint3_linear_170_2499" x1="8.65762" y1="11.318" x2="41.724" y2="13.7946" gradientUnits="userSpaceOnUse">
<stop offset="0.3118" stop-color="#FFBC47" stop-opacity="0"/>
<stop offset="1" stop-color="#FF8900"/>
</linearGradient>
<linearGradient id="paint4_linear_170_2499" x1="8.02793" y1="40.7172" x2="51.4497" y2="40.7172" gradientUnits="userSpaceOnUse">
<stop stop-color="#FFBC47" stop-opacity="0"/>
<stop offset="1" stop-color="#FFA754"/>
</linearGradient>
<linearGradient id="paint5_linear_170_2499" x1="1.02636" y1="40.7828" x2="86.8107" y2="43.5156" gradientUnits="userSpaceOnUse">
<stop stop-color="#FFBC47" stop-opacity="0"/>
<stop offset="1" stop-color="#C86F34"/>
</linearGradient>
<linearGradient id="paint6_linear_170_2499" x1="14.6567" y1="51.9927" x2="28.8435" y2="44.305" gradientUnits="userSpaceOnUse">
<stop stop-color="#FFBC47" stop-opacity="0"/>
<stop offset="1" stop-color="#C86F34"/>
</linearGradient>
<linearGradient id="paint7_linear_170_2499" x1="30.9082" y1="41.0778" x2="42.7381" y2="39.5243" gradientUnits="userSpaceOnUse">
<stop stop-color="#643800" stop-opacity="0"/>
<stop offset="1" stop-color="#643800"/>
</linearGradient>
<linearGradient id="paint8_linear_170_2499" x1="9.91276" y1="14.9609" x2="12.4786" y2="57.4474" gradientUnits="userSpaceOnUse">
<stop stop-color="#FFBC47" stop-opacity="0"/>
<stop offset="1" stop-color="#FFA754"/>
</linearGradient>
<linearGradient id="paint9_linear_170_2499" x1="49.1894" y1="28.6055" x2="32.4025" y2="28.6055" gradientUnits="userSpaceOnUse">
<stop offset="0.00132565" stop-color="#FFBC47"/>
<stop offset="1" stop-color="#FFD748"/>
</linearGradient>
<linearGradient id="paint10_linear_170_2499" x1="49.1894" y1="46.3464" x2="32.3933" y2="46.3464" gradientUnits="userSpaceOnUse">
<stop offset="0.00132565" stop-color="#FFBC47"/>
<stop offset="1" stop-color="#FFD748"/>
</linearGradient>
<linearGradient id="paint11_linear_170_2499" x1="49.1895" y1="54.2971" x2="32.4026" y2="54.2971" gradientUnits="userSpaceOnUse">
<stop offset="0.00132565" stop-color="#FFBC47"/>
<stop offset="1" stop-color="#FFD748"/>
</linearGradient>
<linearGradient id="paint12_linear_170_2499" x1="30.1393" y1="28.6888" x2="38.8829" y2="28.4895" gradientUnits="userSpaceOnUse">
<stop offset="0.00132565" stop-color="#FFCB4B"/>
<stop offset="1" stop-color="#FFD748"/>
</linearGradient>
<linearGradient id="paint13_linear_170_2499" x1="45.4305" y1="46.4653" x2="36.5178" y2="46.4653" gradientUnits="userSpaceOnUse">
<stop offset="0.00132565" stop-color="#FFCB4B"/>
<stop offset="1" stop-color="#FFD748"/>
</linearGradient>
<linearGradient id="paint14_linear_170_2499" x1="45.4302" y1="54.2972" x2="36.5174" y2="54.2972" gradientUnits="userSpaceOnUse">
<stop offset="0.00132565" stop-color="#FFCB4B"/>
<stop offset="1" stop-color="#FFD748"/>
</linearGradient>
<linearGradient id="paint15_linear_170_2499" x1="34.5507" y1="28.4836" x2="29.7951" y2="28.4836" gradientUnits="userSpaceOnUse">
<stop offset="0.00132565" stop-color="#FBA23B" stop-opacity="0"/>
<stop offset="1" stop-color="#FBA23B"/>
</linearGradient>
<linearGradient id="paint16_linear_170_2499" x1="33.6958" y1="28.6205" x2="28.2268" y2="28.6205" gradientUnits="userSpaceOnUse">
<stop offset="0.00132565" stop-color="#FFBC47"/>
<stop offset="1" stop-color="#E89043"/>
</linearGradient>
<radialGradient id="paint17_radial_170_2499" cx="0" cy="0" r="1" gradientUnits="userSpaceOnUse" gradientTransform="translate(20.4571 49.0817) rotate(23.5251) scale(6.67627 3.09971)">
<stop stop-color="#FBE07A"/>
<stop offset="1" stop-color="#FFD748" stop-opacity="0"/>
</radialGradient>
<radialGradient id="paint18_radial_170_2499" cx="0" cy="0" r="1" gradientUnits="userSpaceOnUse" gradientTransform="translate(40.6563 28.6471) rotate(2.02718) scale(5.71235 3.74919)">
<stop stop-color="#FBE07A"/>
<stop offset="1" stop-color="#FFD748"/>
</radialGradient>
<radialGradient id="paint19_radial_170_2499" cx="0" cy="0" r="1" gradientUnits="userSpaceOnUse" gradientTransform="translate(40.3794 47.0546) rotate(-0.0544055) scale(6.1347 3.30707)">
<stop stop-color="#FBE07A"/>
<stop offset="1" stop-color="#FFD748" stop-opacity="0"/>
</radialGradient>
<radialGradient id="paint20_radial_170_2499" cx="0" cy="0" r="1" gradientUnits="userSpaceOnUse" gradientTransform="translate(38.2573 54.49) rotate(-0.0539601) scale(5.61681 3.51542)">
<stop stop-color="#FBE07A"/>
<stop offset="1" stop-color="#FFD748" stop-opacity="0"/>
</radialGradient>
<linearGradient id="paint21_linear_170_2499" x1="35.1199" y1="46.2514" x2="28.2275" y2="46.2514" gradientUnits="userSpaceOnUse">
<stop offset="0.00132565" stop-color="#FBA23B" stop-opacity="0"/>
<stop offset="1" stop-color="#FBA23B"/>
</linearGradient>
<linearGradient id="paint22_linear_170_2499" x1="33.655" y1="46.0105" x2="29.9424" y2="46.0105" gradientUnits="userSpaceOnUse">
<stop offset="0.00132565" stop-color="#FFBC47"/>
<stop offset="1" stop-color="#FBA23B"/>
</linearGradient>
<linearGradient id="paint23_linear_170_2499" x1="34.8729" y1="54.3425" x2="26.8125" y2="52.8622" gradientUnits="userSpaceOnUse">
<stop offset="0.00132565" stop-color="#FBA23B" stop-opacity="0"/>
<stop offset="1" stop-color="#FBA23B"/>
</linearGradient>
<linearGradient id="paint24_linear_170_2499" x1="34.0394" y1="54.0787" x2="30.6324" y2="54.0787" gradientUnits="userSpaceOnUse">
<stop offset="0.00132565" stop-color="#FFBC47"/>
<stop offset="1" stop-color="#FBA23B"/>
</linearGradient>
<linearGradient id="paint25_linear_170_2499" x1="39.4698" y1="27.5481" x2="41.6365" y2="38.034" gradientUnits="userSpaceOnUse">
<stop stop-color="#FFBC47" stop-opacity="0"/>
<stop offset="1" stop-color="#C86F34"/>
</linearGradient>
<linearGradient id="paint26_linear_170_2499" x1="41.1156" y1="48.266" x2="38.7516" y2="39.7369" gradientUnits="userSpaceOnUse">
<stop stop-color="#FFBC47" stop-opacity="0"/>
<stop offset="1" stop-color="#C86F34"/>
</linearGradient>
<linearGradient id="paint27_linear_170_2499" x1="49.1895" y1="38.2021" x2="32.4026" y2="38.2021" gradientUnits="userSpaceOnUse">
<stop offset="0.00132565" stop-color="#FFBC47"/>
<stop offset="1" stop-color="#FFD748"/>
</linearGradient>
<linearGradient id="paint28_linear_170_2499" x1="31.7254" y1="37.7336" x2="44.5845" y2="38.2033" gradientUnits="userSpaceOnUse">
<stop offset="0.00132565" stop-color="#FFCB4B"/>
<stop offset="0.7382" stop-color="#FFD748"/>
<stop offset="1" stop-color="#FFCB4B"/>
</linearGradient>
<linearGradient id="paint29_linear_170_2499" x1="36.7434" y1="38.0287" x2="27.1362" y2="38.0287" gradientUnits="userSpaceOnUse">
<stop offset="0.00132565" stop-color="#FBA23B" stop-opacity="0"/>
<stop offset="1" stop-color="#FBA23B"/>
</linearGradient>
<radialGradient id="paint30_radial_170_2499" cx="0" cy="0" r="1" gradientUnits="userSpaceOnUse" gradientTransform="translate(42.322 38.0478) rotate(-2.73606) scale(6.28155 4.12298)">
<stop stop-color="#FBE07A"/>
<stop offset="1" stop-color="#FFD748" stop-opacity="0"/>
</radialGradient>
<linearGradient id="paint31_linear_170_2499" x1="32.2778" y1="38.017" x2="29.2445" y2="38.017" gradientUnits="userSpaceOnUse">
<stop offset="0.00132565" stop-color="#FFBC47"/>
<stop offset="1" stop-color="#FBA23B"/>
</linearGradient>
<linearGradient id="paint32_linear_170_2499" x1="40.267" y1="37.0923" x2="42.0915" y2="48.6895" gradientUnits="userSpaceOnUse">
<stop stop-color="#FFBC47" stop-opacity="0"/>
<stop offset="1" stop-color="#C86F34"/>
</linearGradient>
<linearGradient id="paint33_linear_170_2499" x1="39.0017" y1="46.064" x2="43.6765" y2="56.2066" gradientUnits="userSpaceOnUse">
<stop stop-color="#FFBC47" stop-opacity="0"/>
<stop offset="1" stop-color="#C86F34"/>
</linearGradient>
<linearGradient id="paint34_linear_170_2499" x1="38.0714" y1="54.962" x2="38.7556" y2="61.3733" gradientUnits="userSpaceOnUse">
<stop stop-color="#FFBC47" stop-opacity="0"/>
<stop offset="1" stop-color="#C86F34"/>
</linearGradient>
<linearGradient id="paint35_linear_170_2499" x1="38.2324" y1="53.9893" x2="38.2324" y2="49.3516" gradientUnits="userSpaceOnUse">
<stop stop-color="#FFBC47" stop-opacity="0"/>
<stop offset="1" stop-color="#C86F34"/>
</linearGradient>
<linearGradient id="paint36_linear_170_2499" x1="6.92191" y1="41.1859" x2="-7.61353" y2="63.149" gradientUnits="userSpaceOnUse">
<stop stop-color="#C86F34" stop-opacity="0"/>
<stop offset="1" stop-color="#C86F34"/>
</linearGradient>
<linearGradient id="paint37_linear_170_2499" x1="5.96172" y1="46.0436" x2="8.35643" y2="56.7288" gradientUnits="userSpaceOnUse">
<stop stop-color="#FFBC47" stop-opacity="0"/>
<stop offset="1" stop-color="#C86F34"/>
</linearGradient>
<linearGradient id="paint38_linear_170_2499" x1="7.41228" y1="48.0485" x2="7.07017" y2="61.1276" gradientUnits="userSpaceOnUse">
<stop stop-color="#FFBC47" stop-opacity="0"/>
<stop offset="1" stop-color="#C86F34"/>
</linearGradient>
<radialGradient id="paint39_radial_170_2499" cx="0" cy="0" r="1" gradientUnits="userSpaceOnUse" gradientTransform="translate(27.6945 6.52948) rotate(79.0714) scale(6.02306 3.53329)">
<stop stop-color="#FBE07A"/>
<stop offset="1" stop-color="#FFD748" stop-opacity="0"/>
</radialGradient>
</defs>
</svg>
