<svg width="52" height="59" viewBox="0 0 52 59" fill="none" xmlns="http://www.w3.org/2000/svg">
<path d="M25.0853 5.64624H26.8694L28.4683 39.1758L23.0596 39.0428L23.183 13.0541L25.0853 5.64624Z" fill="#A3541E"/>
<g opacity="0.5">
<path opacity="0.5" d="M37.6452 34.7732C37.0899 28.5242 35.7326 25.3803 35.0745 23.0459C34.4215 20.7171 33.0179 11.7289 32.5449 8.02497C32.0719 4.32102 32.8122 0.672523 29.0539 0.705792C26.406 0.727972 25.9587 3.18988 26.0873 5.64624C25.9536 7.11007 26.0153 9.13948 26.3495 11.9285V11.9341C25.9485 13.7472 26.149 16.2424 26.442 18.5158C26.9819 22.7021 27.1927 25.3082 26.8842 26.7554C26.5757 28.2026 24.9099 41.8429 27.2801 46.1235C30.3752 51.7293 36.2107 50.8366 37.5064 53.3762C37.5064 53.3762 41.0797 46.7445 39.7686 43.7448C39.1979 43.1238 38.2005 41.0167 37.6452 34.7732Z" fill="url(#paint0_linear_170_2551)"/>
</g>
<path d="M39.5738 43.2014C38.597 42.8409 37.0905 44.7872 36.2165 47.5485C35.3425 50.3098 35.4247 52.8383 36.4016 53.2042" fill="#6E72DB"/>
<path d="M36.4014 53.2044C37.3782 53.5648 38.8847 51.6186 39.7587 48.8573C40.6328 46.0959 40.5505 43.5675 39.5736 43.2015" fill="#6E72DB"/>
<path d="M26.4374 8.55172C25.9747 5.67395 25.3012 0.733507 29.0596 0.700238C32.8179 0.666969 32.0776 4.31547 32.5506 8.01942C33.0236 11.7234 34.4272 20.7171 35.0802 23.0459C35.7331 25.3747 37.0956 28.5242 37.6509 34.7732C38.2062 41.0223 38.926 41.6821 39.7743 43.7448L31.5429 44.8537L26.4374 8.55172Z" fill="url(#paint1_linear_170_2551)"/>
<path opacity="0.5" d="M26.4374 8.55172C25.9747 5.67395 25.3012 0.733507 29.0596 0.700238C32.8179 0.666969 32.0776 4.31547 32.5506 8.01942C33.0236 11.7234 34.4272 20.7171 35.0802 23.0459C35.7331 25.3747 37.0956 28.5242 37.6509 34.7732C38.2062 41.0223 37.3321 40.2626 39.7743 43.7448L31.5429 44.8537L26.4374 8.55172Z" fill="url(#paint2_radial_170_2551)"/>
<path d="M29.0596 0.700256C29.1778 0.700256 29.2909 0.700256 29.3989 0.705801C27.3886 1.92566 26.859 5.27474 27.9285 14.8285C28.1135 16.4919 28.1033 17.9613 27.9439 19.2644L26.4374 8.55174C25.9747 5.67397 25.3012 0.733525 29.0596 0.700256Z" fill="url(#paint3_linear_170_2551)"/>
<path d="M34.201 25.1141C32.8797 18.4603 31.7897 8.44081 31.5789 5.96781C31.3681 3.49482 30.8488 1.99217 28.8128 2.0088C26.7768 2.02544 25.3526 3.48927 26.3552 11.9285C27.3527 20.3677 27.2755 26.894 27.2755 26.894L31.6766 27.138C32.854 27.199 33.9131 26.3506 34.201 25.1141Z" fill="url(#paint4_linear_170_2551)"/>
<path d="M34.201 25.1141C32.8797 18.4603 31.7897 8.44081 31.5789 5.96781C31.3681 3.49482 30.8488 1.99217 28.8128 2.0088C26.7768 2.02544 25.3526 3.48927 26.3552 11.9285C27.3527 20.3677 27.2755 26.894 27.2755 26.894L31.6766 27.138C32.854 27.199 33.9131 26.3506 34.201 25.1141Z" fill="url(#paint5_radial_170_2551)"/>
<path d="M30.9004 3.08453C31.3014 3.76655 31.4814 4.74798 31.5842 5.96785C31.7847 8.31331 32.777 17.4623 34.0058 24.0773C33.9236 24.0385 33.8413 23.861 33.7487 23.5339C32.5559 19.2644 31.6099 10.6976 31.4865 8.8068C31.4094 7.67011 31.4505 4.86997 30.9004 3.08453Z" fill="url(#paint6_linear_170_2551)"/>
<path d="M26.3551 11.923C25.6301 5.77929 26.1854 3.33402 27.3268 2.45239C27.0492 3.81088 27.0132 6.41695 27.2034 7.97505C27.5479 10.7974 30.3191 6.62211 30.6225 10.875C30.9721 15.7711 28.8692 23.1069 29.0235 26.0567C29.044 26.4948 28.9361 26.7887 28.7253 26.9661L27.2754 26.8829C27.2703 26.8885 27.3525 20.3622 26.3551 11.923Z" fill="url(#paint7_linear_170_2551)"/>
<path d="M32.7465 26.1566C30.3352 18.7598 32.3712 9.32805 28.9316 9.35577C25.6822 9.3835 25.9084 14.3295 26.4483 18.5103C26.9881 22.6966 27.1989 25.3027 26.8904 26.7499C26.5819 28.1971 24.9161 41.8374 27.2863 46.118C30.3814 51.7238 36.217 50.8311 37.5126 53.3707L38.4175 53.0601C41.3172 52.0621 41.1064 45.1698 39.78 43.7393L34.3249 41.3217L32.7465 26.1566Z" fill="url(#paint8_linear_170_2551)"/>
<path d="M37.5069 53.3761C36.2113 50.8366 30.3758 51.7349 27.2807 46.1235C24.9156 41.8429 26.5814 28.1971 26.8848 26.7554C27.1932 25.3082 26.9824 22.7021 26.4426 18.5158C25.9027 14.3294 25.6817 9.38344 28.931 9.35571C28.931 9.35571 26.9824 11.557 27.3835 16.0261C27.7845 20.4953 28.1444 23.3287 27.7434 27.3598C27.2292 32.5331 26.9979 41.7874 29.7074 45.3417C32.4169 48.9015 38.1548 46.3841 37.9748 53.2098L37.5069 53.3761Z" fill="url(#paint9_linear_170_2551)"/>
<path d="M32.7465 26.1566C30.3352 18.7598 32.3712 9.32805 28.9316 9.35577C25.6822 9.3835 25.9084 14.3295 26.4483 18.5103C26.9881 22.6966 27.1989 25.3027 26.8904 26.7499C26.5819 28.1971 24.9161 41.8374 27.2863 46.118C30.3814 51.7238 36.217 50.8311 37.5126 53.3707L38.4175 53.0601C41.3172 52.0621 41.0447 46.2566 39.78 43.7393L34.3249 41.3217L32.7465 26.1566Z" fill="url(#paint10_radial_170_2551)"/>
<path d="M32.6224 26.5779C32.3447 26.1344 31.1725 23.6059 30.8949 17.246C30.6738 12.2002 30.2522 11.0968 30.3602 10.2817C31.7535 12.8157 30.7972 20.1016 32.7201 26.09C32.7355 26.5114 32.7098 26.7166 32.6224 26.5779Z" fill="url(#paint11_linear_170_2551)"/>
<path d="M37.5069 53.3761C36.2113 50.8366 30.3758 51.7349 27.2807 46.1235C24.9156 41.8429 26.5814 28.1971 26.8848 26.7554C27.1932 25.3082 26.9824 22.7021 26.4426 18.5158C25.9027 14.3294 25.6817 9.38344 28.931 9.35571C28.931 9.35571 26.7357 10.7863 27.3835 16.0261C27.9336 20.4786 28.1444 23.3287 27.7434 27.3598C27.2292 32.5331 26.9979 41.7874 29.7074 45.3417C32.4169 48.9015 38.8746 47.3378 37.9748 53.2098L37.5069 53.3761Z" fill="url(#paint12_linear_170_2551)"/>
<path opacity="0.25" d="M31.4758 42.0646C37.0594 53.3096 33.5889 25.5909 35.9283 25.7795C36.5607 27.8588 37.2805 30.6367 37.6506 34.7676C38.0414 39.1813 38.6121 41.743 39.774 44.094C39.1365 46.6447 37.5581 48.8127 35.4038 50.1545C33.4964 51.3411 29.9128 49.6167 27.2958 46.1345C27.2907 46.129 27.2907 46.1235 27.2855 46.1179C24.9205 41.8373 26.5863 28.1915 26.8896 26.7498C28.4115 22.9405 29.5426 38.1777 31.4758 42.0646Z" fill="url(#paint13_radial_170_2551)"/>
<path opacity="0.75" d="M26.8905 26.7554C27.199 25.3082 26.9882 22.7021 26.4484 18.5158C26.0833 15.699 25.8674 12.5385 26.7517 10.7641L26.4432 8.55727C25.9754 5.67395 25.3018 0.733507 29.0602 0.700238C32.8186 0.666969 32.0782 4.31547 32.5513 8.01942C33.0243 11.7234 34.4279 20.7115 35.0808 23.0404C35.7338 25.3692 37.0963 28.5187 37.6515 34.7677C38.2068 41.0167 38.7261 41.3938 39.7749 43.7392C40.9523 46.4396 41.3174 52.062 38.4125 53.0601L37.5076 53.3706C36.2119 50.8311 30.3764 51.7293 27.2813 46.118C24.9162 41.8429 26.5821 28.1971 26.8905 26.7554Z" fill="url(#paint14_radial_170_2551)"/>
<path d="M26.4478 18.5158C26.1547 16.2424 25.9542 13.7472 26.3552 11.9341C26.0262 9.13947 25.9594 7.11006 26.093 5.64068C25.9645 3.18432 26.4118 0.722417 29.0596 0.700238C32.818 0.666969 32.0776 4.31547 32.5507 8.01942C33.0237 11.7234 34.4273 20.7115 35.0802 23.0404C35.7332 25.3692 37.0957 28.5187 37.6509 34.7677C38.2062 41.0167 38.962 42.2089 39.7744 43.7392C40.2062 45.253 39.7641 47.4099 39.1574 49.3007C38.5404 51.2247 36.597 52.2284 34.818 51.5519C32.489 50.6703 29.3013 49.7775 27.2858 46.1235C24.9208 41.8429 26.5866 28.1971 26.89 26.7554C27.1984 25.3082 26.9876 22.7021 26.4478 18.5158Z" fill="url(#paint15_linear_170_2551)"/>
<path d="M39.7079 43.2736C39.6205 43.2292 39.5742 43.2015 39.5742 43.2015C39.6205 43.2237 39.6616 43.2458 39.7079 43.2736Z" fill="#6E72DB"/>
<path d="M39.7592 48.8571C40.5921 46.2288 40.4225 43.7392 39.5741 43.2014C41.6975 43.4564 50.9829 45.2696 51.2914 45.2973C52.659 49.5446 50.4379 56.4646 47.7233 58.2001C42.551 59.1483 36.1396 53.0323 36.1396 53.0323C37.1217 53.3983 38.8852 51.6184 39.7592 48.8571Z" fill="#6E72DB"/>
<path d="M39.7079 43.2736C39.6205 43.2292 39.5742 43.2015 39.5742 43.2015C39.6205 43.2237 39.6616 43.2458 39.7079 43.2736Z" fill="#6E72DB"/>
<path opacity="0.5" d="M47.7233 58.2003C42.551 59.1484 36.1396 53.0325 36.1396 53.0325C37.0445 53.3652 38.6178 51.8736 39.5433 49.4727L40.2939 49.0957C40.2939 49.0957 39.4199 52.2895 41.9597 53.1877C47.0086 54.9732 50.4636 51.7683 51.6976 48.8129C51.5331 52.6443 49.7696 56.8917 47.7233 58.2003Z" fill="#6E72DB"/>
<path d="M39.5741 43.2014C40.9109 43.401 41.3376 45.9627 40.4482 48.6408C38.7104 53.8641 36.9469 53.7421 36.1396 53.0323C37.1165 53.3928 38.8852 51.6184 39.7592 48.8571C40.5973 46.2288 40.4276 43.7392 39.5741 43.2014Z" fill="#6E72DB"/>
<path opacity="0.16" d="M39.7592 48.8571C40.5921 46.2288 40.4225 43.7392 39.5741 43.2014C41.6975 43.4564 50.9829 45.2696 51.2914 45.2973C52.659 49.5446 50.4379 56.4646 47.7233 58.2001C42.551 59.1483 36.1396 53.0323 36.1396 53.0323C37.1217 53.3983 38.8852 51.6184 39.7592 48.8571Z" fill="url(#paint16_radial_170_2551)"/>
<path d="M12.4268 43.2015C13.4036 42.8411 14.9101 44.7873 15.7841 47.5486C16.6581 50.31 16.5759 52.8384 15.599 53.2044" fill="#6E72DB"/>
<path d="M15.5992 53.2044C14.6224 53.5648 13.1159 51.6185 12.2419 48.8572C11.3678 46.0959 11.4501 43.5674 12.427 43.2015" fill="#6E72DB"/>
<path d="M25.5631 8.55171C26.031 5.6684 26.7045 0.727955 22.9462 0.70023C19.1878 0.672506 19.9282 4.31546 19.4551 8.01941C18.9821 11.7234 17.5785 20.7115 16.9256 23.0404C16.2726 25.3692 14.9101 28.5187 14.3549 34.7677C13.7996 41.0167 13.0798 41.6765 12.2314 43.7392L20.4629 44.8482L25.5631 8.55171Z" fill="url(#paint17_linear_170_2551)"/>
<path opacity="0.5" d="M25.5631 8.55171C26.031 5.6684 26.7045 0.727955 22.9462 0.70023C19.1878 0.672506 19.9282 4.31546 19.4551 8.01941C18.9821 11.7234 17.5785 20.7115 16.9256 23.0404C16.2726 25.3692 14.9101 28.5187 14.3549 34.7677C13.7996 41.0167 14.6736 40.2571 12.2314 43.7392L20.4629 44.8482L25.5631 8.55171Z" fill="url(#paint18_radial_170_2551)"/>
<path d="M22.9409 0.700256C22.8226 0.700256 22.7095 0.700256 22.6016 0.705801C24.6119 1.92566 25.1414 5.27474 24.072 14.8285C23.8869 16.4919 23.8972 17.9613 24.0566 19.2644L25.563 8.55174C26.0258 5.67397 26.6993 0.733525 22.9409 0.700256Z" fill="url(#paint19_linear_170_2551)"/>
<path d="M17.7998 25.1141C19.1211 18.4603 20.2111 8.44081 20.4219 5.96781C20.6327 3.49482 21.152 1.99217 23.188 2.0088C25.224 2.02544 26.6482 3.48927 25.6456 11.9285C24.6482 20.3677 24.7253 26.894 24.7253 26.894L20.3242 27.138C19.1469 27.199 18.0877 26.3506 17.7998 25.1141Z" fill="url(#paint20_linear_170_2551)"/>
<path d="M17.7998 25.1141C19.1211 18.4603 20.2111 8.44081 20.4219 5.96781C20.6327 3.49482 21.152 1.99217 23.188 2.0088C25.224 2.02544 26.6482 3.48927 25.6456 11.9285C24.6482 20.3677 24.7253 26.894 24.7253 26.894L20.3242 27.138C19.1469 27.199 18.0877 26.3506 17.7998 25.1141Z" fill="url(#paint21_radial_170_2551)"/>
<path d="M21.1005 3.08453C20.6995 3.76655 20.5196 4.74798 20.4167 5.96785C20.2162 8.31331 19.2239 17.4623 17.9951 24.0773C18.0774 24.0385 18.1596 23.861 18.2522 23.5339C19.445 19.2644 20.391 10.6976 20.5144 8.8068C20.5915 7.67011 20.5504 4.86997 21.1005 3.08453Z" fill="url(#paint22_linear_170_2551)"/>
<path d="M25.6455 11.923C26.3705 5.77929 25.8152 3.33402 24.6738 2.45239C24.9514 3.81088 24.9874 6.41695 24.7972 7.97505C24.4527 10.7974 21.6815 6.62211 21.3782 10.875C21.0285 15.7711 23.1314 23.1069 22.9771 26.0567C22.9566 26.4948 23.0645 26.7887 23.2753 26.9661L24.7252 26.8829C24.7304 26.8885 24.6481 20.3622 25.6455 11.923Z" fill="url(#paint23_linear_170_2551)"/>
<path d="M19.2543 26.1566C21.6656 18.7598 19.6296 9.32805 23.0692 9.35577C26.3186 9.3835 26.0924 14.3295 25.5525 18.5103C25.0127 22.6911 24.8019 25.3027 25.1103 26.7499C25.4188 28.1971 27.0846 41.8374 24.7145 46.118C21.6193 51.7238 15.7838 50.8311 14.4882 53.3707L13.5833 53.0601C10.6835 52.0621 10.8943 45.1698 12.2208 43.7393L17.6758 41.3217L19.2543 26.1566Z" fill="url(#paint24_linear_170_2551)"/>
<path d="M14.4932 53.3762C15.7889 50.8366 21.6244 51.7349 24.7195 46.1235C27.0846 41.8429 25.4187 28.1971 25.1154 26.7554C24.8069 25.3082 25.0177 22.7021 25.5576 18.5158C26.0974 14.3294 26.3236 9.38345 23.0743 9.36127C23.0743 9.36127 25.0229 11.5626 24.6218 16.0317C24.2208 20.5008 23.8609 23.3342 24.2619 27.3653C24.7761 32.5387 25.0074 41.793 22.2979 45.3472C19.5884 48.907 13.8506 46.3897 14.0305 53.2154L14.4932 53.3762Z" fill="url(#paint25_linear_170_2551)"/>
<path d="M19.2548 26.1566C21.6661 18.7598 19.6301 9.32805 23.0697 9.35577C26.3191 9.3835 26.0929 14.3295 25.553 18.5103C25.0132 22.6911 24.8024 25.3027 25.1109 26.7499C25.4194 28.1971 27.0852 41.8374 24.715 46.118C21.6199 51.7238 15.7843 50.8311 14.4887 53.3707L13.5838 53.0601C10.684 52.0621 10.9565 46.2566 12.2213 43.7393L17.6764 41.3217L19.2548 26.1566Z" fill="url(#paint26_radial_170_2551)"/>
<path d="M19.3783 26.5779C19.6559 26.1344 20.8281 23.6059 21.1058 17.246C21.3269 12.2002 21.7485 11.0968 21.6405 10.2817C20.2472 12.8157 21.2035 20.1016 19.2806 26.09C19.2652 26.5114 19.2909 26.7166 19.3783 26.5779Z" fill="url(#paint27_linear_170_2551)"/>
<path d="M14.4933 53.3762C15.7889 50.8366 21.6244 51.7349 24.7196 46.1235C27.0846 41.8429 25.4188 28.1971 25.1155 26.7554C24.807 25.3082 25.0178 22.7021 25.5576 18.5158C26.0975 14.3294 26.3237 9.38345 23.0743 9.36127C23.0743 9.36127 25.2697 10.7918 24.6219 16.0317C24.0718 20.4842 23.861 23.3342 24.262 27.3653C24.7761 32.5387 25.0075 41.793 22.298 45.3472C19.5884 48.907 13.1308 47.3434 14.0306 53.2154L14.4933 53.3762Z" fill="url(#paint28_linear_170_2551)"/>
<path opacity="0.25" d="M20.5248 42.0646C14.9464 53.3096 18.4168 25.5909 16.0723 25.7795C15.44 27.8588 14.7202 30.6367 14.35 34.7676C13.9592 39.1813 13.3885 41.743 12.2266 44.094C12.8641 46.6447 14.4425 48.8127 16.5968 50.1545C18.5042 51.3411 22.0878 49.6167 24.7048 46.1345C24.7099 46.129 24.7099 46.1235 24.7151 46.1179C27.0801 41.8373 25.4143 28.1915 25.111 26.7498C23.5891 22.9405 22.458 38.1777 20.5248 42.0646Z" fill="url(#paint29_radial_170_2551)"/>
<path opacity="0.75" d="M25.111 26.7554C24.8025 25.3082 25.0133 22.7021 25.5531 18.5158C25.9182 15.699 26.1341 12.5385 25.2498 10.7641L25.5583 8.55727C26.0261 5.67396 26.6997 0.733516 22.9413 0.705792C19.1829 0.672523 19.9233 4.32102 19.4503 8.02497C18.9773 11.7289 17.5737 20.7171 16.9207 23.0459C16.2677 25.3748 14.9053 28.5242 14.35 34.7732C13.7947 41.0223 13.2754 41.3993 12.2266 43.7448C11.0492 46.4451 10.6842 52.0676 13.5891 53.0656L14.4939 53.3762C15.7896 50.8366 21.6251 51.7349 24.7202 46.1235C27.0853 41.8429 25.4195 28.1971 25.111 26.7554Z" fill="url(#paint30_radial_170_2551)"/>
<path d="M25.5528 18.5158C25.8459 16.2424 26.0464 13.7472 25.6454 11.9341V11.9285C25.9744 9.13393 26.0413 7.11006 25.9076 5.64623C26.0361 3.18432 25.5888 0.722417 22.941 0.700238C19.1826 0.666969 19.923 4.31547 19.45 8.01942C18.977 11.7234 17.5734 20.7115 16.9204 23.0404C16.2674 25.3692 14.905 28.5187 14.3497 34.7677C13.7944 41.0167 13.0386 42.2089 12.2263 43.7392C11.2803 47.0329 14.4885 53.3706 14.4885 53.3706C15.7841 50.8311 21.6197 51.7293 24.7148 46.118C27.0798 41.8373 25.414 28.1915 25.1107 26.7499C24.8022 25.3082 25.013 22.7021 25.5528 18.5158Z" fill="url(#paint31_linear_170_2551)"/>
<path d="M12.293 43.2736C12.3804 43.2292 12.4266 43.2015 12.4266 43.2015C12.3804 43.2237 12.3392 43.2458 12.293 43.2736Z" fill="#6E72DB"/>
<path d="M12.2416 48.8571C11.4087 46.2288 11.5784 43.7392 12.4267 43.2014C10.3033 43.4564 1.01791 45.2696 0.709425 45.2973C-0.658193 49.5446 1.5629 56.4646 4.27757 58.2001C9.44984 59.1483 15.8612 53.0323 15.8612 53.0323C14.8792 53.3983 13.1157 51.6184 12.2416 48.8571Z" fill="#6E72DB"/>
<path d="M12.293 43.2737C12.3804 43.2293 12.4266 43.2016 12.4266 43.2016C12.3804 43.2238 12.3392 43.246 12.293 43.2737Z" fill="#6E72DB"/>
<path opacity="0.5" d="M4.27803 58.2004C9.4503 59.1486 15.8616 53.0326 15.8616 53.0326C14.9568 53.3653 13.3835 51.8737 12.458 49.4728L11.7074 49.0958C11.7074 49.0958 12.5814 52.2896 10.0416 53.1879C4.99269 54.9733 1.53765 51.7684 0.303711 48.813C0.468236 52.6445 2.23174 56.8918 4.27803 58.2004Z" fill="#6E72DB"/>
<path d="M12.4269 43.2015C11.0901 43.4011 10.6633 45.9628 11.5528 48.641C13.2906 53.8642 15.0541 53.7422 15.8613 53.0325C14.8845 53.3929 13.1158 51.6185 12.2418 48.8572C11.4037 46.229 11.5734 43.7393 12.4269 43.2015Z" fill="#6E72DB"/>
<path opacity="0.16" d="M12.2416 48.8571C11.4087 46.2288 11.5784 43.7392 12.4267 43.2014C10.3033 43.4564 1.01791 45.2696 0.709425 45.2973C-0.658193 49.5446 1.5629 56.4646 4.27757 58.2001C9.44984 59.1483 15.8612 53.0323 15.8612 53.0323C14.8792 53.3983 13.1157 51.6184 12.2416 48.8571Z" fill="url(#paint32_radial_170_2551)"/>
<path d="M25.5529 18.5158C25.846 16.2424 26.0465 13.7472 25.6455 11.9341C25.9745 9.13947 26.0413 7.11006 25.9077 5.64068C26.0362 3.18432 25.5889 0.722417 22.9411 0.700238C19.1827 0.666969 19.9231 4.31547 19.45 8.01942C18.977 11.7234 17.5734 20.7115 16.9205 23.0404C16.2675 25.3692 14.905 28.5187 14.3498 34.7677C13.7945 41.0167 13.0387 42.2089 12.2263 43.7392C11.6557 45.7243 12.5965 48.8127 13.4294 50.9531C13.851 52.0343 15.0181 52.5389 16.0053 52.0454C18.3138 50.8976 22.3241 50.4374 24.7149 46.118C27.0799 41.8373 25.4141 28.1915 25.1107 26.7499C24.8023 25.3082 25.0131 22.7021 25.5529 18.5158Z" fill="url(#paint33_linear_170_2551)"/>
<path d="M24.7197 46.1235C25.3573 44.8481 25.5629 43.3954 25.6966 41.9815C25.8406 40.5564 25.8868 39.1203 25.8714 37.6842C25.8508 34.812 25.6298 31.9453 25.3007 29.1008C25.2236 28.3911 25.1413 27.6758 25.0231 26.9772C24.874 26.2674 24.8431 25.5244 24.8585 24.8036C24.8894 23.3564 25.0539 21.9258 25.2184 20.4952C25.383 19.0647 25.6143 17.6507 25.7274 16.2202C25.8508 14.7952 25.9177 13.3424 25.6452 11.934C26.2364 14.773 25.7069 17.6896 25.3984 20.523C25.2442 21.948 25.1002 23.3786 25.0848 24.8091C25.0796 25.5244 25.1156 26.2286 25.2699 26.9217C25.3933 27.637 25.4858 28.3467 25.5681 29.062C25.8714 31.9231 26.0565 34.8009 26.0514 37.6842C26.0514 39.1259 25.9948 40.5675 25.8303 41.9981C25.6503 43.4176 25.3984 44.8703 24.7197 46.1235Z" fill="#975500"/>
<path d="M24.7197 46.1235C25.3573 44.8481 25.5629 43.3954 25.6966 41.9815C25.8406 40.5564 25.8868 39.1203 25.8714 37.6842C25.8508 34.812 25.6298 31.9453 25.3007 29.1008C25.2236 28.3911 25.1413 27.6758 25.0231 26.9772C24.874 26.2674 24.8431 25.5244 24.8585 24.8036C24.8894 23.3564 25.0539 21.9258 25.2184 20.4952C25.383 19.0647 25.6143 17.6507 25.7274 16.2202C25.8508 14.7952 25.9177 13.3424 25.6452 11.934C26.2364 14.773 25.7069 17.6896 25.3984 20.523C25.2442 21.948 25.1002 23.3786 25.0848 24.8091C25.0796 25.5244 25.1156 26.2286 25.2699 26.9217C25.3933 27.637 25.4858 28.3467 25.5681 29.062C25.8714 31.9231 26.0565 34.8009 26.0514 37.6842C26.0514 39.1259 25.9948 40.5675 25.8303 41.9981C25.6503 43.4176 25.3984 44.8703 24.7197 46.1235Z" fill="#975500"/>
<path d="M24.7197 46.1235C25.3624 44.8537 25.5681 43.401 25.7069 41.9815C25.8406 40.5565 25.8971 39.1204 25.8765 37.6843C25.856 34.8121 25.64 31.9454 25.311 29.0953C25.2287 28.3856 25.1362 27.6703 25.0128 26.9717C24.8534 26.2675 24.8174 25.5189 24.838 24.7981C24.8688 23.3509 25.0282 21.9148 25.1979 20.4897C25.5269 17.6508 26.0976 14.7675 25.5732 11.9507V11.923C25.8148 9.84367 26.0565 7.74218 25.9074 5.64069C26.1028 7.73663 25.9434 9.85476 25.7172 11.9396V11.923V11.9063C26.2724 14.7786 25.7172 17.6841 25.419 20.5119C25.2647 21.9369 25.1208 23.3675 25.1002 24.7925C25.095 25.5078 25.1259 26.2065 25.2699 26.9051C25.3881 27.6259 25.4704 28.3357 25.5475 29.051C25.8508 31.9121 26.0411 34.7899 26.0359 37.6676C26.0359 39.1093 25.9845 40.551 25.8097 41.9815C25.64 43.4121 25.3933 44.8704 24.7197 46.1235Z" fill="#804B24"/>
<path d="M27.2807 46.0514C26.6072 44.7983 26.3552 43.34 26.1804 41.9205C26.0005 40.49 25.9542 39.0483 25.9542 37.6066C25.9491 34.7233 26.1393 31.8511 26.4426 28.9844C26.5198 28.2691 26.6072 27.5594 26.7203 26.8386C26.8642 26.1399 26.8951 25.4413 26.8899 24.726C26.8745 23.301 26.7254 21.8704 26.5712 20.4454C26.273 17.612 25.7177 14.7065 26.273 11.8343V11.8509V11.8675C26.0467 9.77712 25.8925 7.66454 26.0827 5.56305C25.9336 7.66454 26.1753 9.76603 26.4169 11.8453V11.8731C25.8976 14.6954 26.4683 17.5787 26.7923 20.4177C26.9568 21.8482 27.1213 23.2788 27.147 24.726C27.1624 25.4468 27.1316 26.1954 26.9722 26.8996C26.854 27.5982 26.7614 28.3135 26.674 29.0232C26.345 31.8733 26.129 34.74 26.1084 37.6122C26.0879 39.0483 26.1496 40.4844 26.2781 41.9094C26.4272 43.3289 26.638 44.7817 27.2807 46.0514Z" fill="#804B24"/>
<path d="M19.2549 26.1566C19.9541 23.8721 20.2575 21.4823 20.4477 19.098C20.6533 16.7082 20.6328 14.3017 21.0287 11.9174C21.1469 11.3297 21.296 10.7308 21.5942 10.2041C21.7485 9.94347 21.9438 9.70505 22.1906 9.53316C22.4426 9.3779 22.7356 9.29473 23.0235 9.28918C23.5891 9.30582 24.1701 9.45553 24.6225 9.83812C25.0853 10.2207 25.3526 10.7918 25.5377 11.3519C25.8976 12.5052 25.9284 13.7361 25.8976 14.9283C25.8513 16.1315 25.7125 17.3236 25.548 18.5102C25.6868 17.3181 25.7948 16.126 25.8153 14.9283C25.8359 13.7361 25.7999 12.5163 25.4349 11.3907C25.2446 10.8417 24.9824 10.2928 24.5454 9.93793C24.1135 9.57752 23.5634 9.44444 23.0235 9.43335C22.7562 9.4389 22.494 9.51652 22.2678 9.66069C22.0467 9.81594 21.8667 10.0377 21.7228 10.2817C21.4451 10.7863 21.3012 11.3685 21.1932 11.9452C20.7819 14.2906 20.7819 16.7137 20.5608 19.098C20.3603 21.4934 20.0158 23.8943 19.2549 26.1566Z" fill="#804B24"/>
<path d="M17.7998 25.1142C18.3499 22.131 18.787 19.1202 19.1931 16.1093C19.589 13.0985 19.9438 10.0766 20.2368 7.04909C20.3191 6.29499 20.3602 5.53535 20.4888 4.77571C20.6173 4.0327 20.8127 3.24534 21.3217 2.66313C21.8307 2.07538 22.6122 1.90349 23.3165 1.94785C24.0261 1.95339 24.7767 2.28054 25.1932 2.92928C25.9901 4.2545 26.0004 5.87359 26.0107 7.37624C25.9849 8.90107 25.8307 10.4148 25.6508 11.9285C25.805 10.4148 25.9335 8.89552 25.9335 7.37624C25.913 5.88468 25.8873 4.26559 25.1058 3.00136C24.6996 2.38589 24.0055 2.08647 23.3114 2.08092C22.6225 2.04211 21.8872 2.214 21.4194 2.76848C20.9515 3.31187 20.7561 4.07152 20.6379 4.80898C20.5196 5.55199 20.4836 6.31163 20.4014 7.07127C20.0877 10.0988 19.7176 13.1151 19.3011 16.126C18.8846 19.1368 18.4116 22.1421 17.7998 25.1142Z" fill="#804B24"/>
<path d="M32.7304 26.1566C31.9694 23.8943 31.625 21.4989 31.4244 19.1091C31.1982 16.7193 31.1982 14.3017 30.792 11.9563C30.6789 11.3741 30.535 10.7919 30.2625 10.2873C30.1185 10.0433 29.9386 9.82151 29.7175 9.66625C29.4861 9.52209 29.2291 9.44446 28.9617 9.43891C28.4218 9.45 27.8717 9.58308 27.4398 9.94349C27.0028 10.2984 26.7406 10.8473 26.5504 11.3962C26.1853 12.5218 26.1493 13.7417 26.1699 14.9338C26.1905 16.1315 26.2984 17.3292 26.4373 18.5213C26.2727 17.3348 26.1339 16.1426 26.0876 14.9394C26.0568 13.7417 26.0825 12.5163 26.4475 11.363C26.6378 10.7974 26.9051 10.2263 27.3627 9.84923C27.8203 9.46109 28.3961 9.31693 28.9617 9.30029C29.2496 9.30029 29.5375 9.38901 29.7946 9.54427C30.0414 9.71616 30.2368 9.95458 30.391 10.2152C30.6892 10.7475 30.8383 11.3408 30.9566 11.9285C31.3525 14.3128 31.3319 16.7193 31.5375 19.1091C31.7278 21.4823 32.0311 23.8721 32.7304 26.1566Z" fill="#804B24"/>
<path d="M34.1855 25.1142C33.5736 22.1421 33.1006 19.1368 32.6842 16.126C32.2677 13.1151 31.8975 10.0932 31.5839 7.07127C31.5016 6.31163 31.4656 5.55199 31.3474 4.80898C31.224 4.07706 31.0338 3.31742 30.5659 2.76848C30.098 2.21954 29.3628 2.04211 28.6739 2.08092C27.9798 2.08092 27.2857 2.38589 26.8795 3.00136C26.1031 4.26559 26.0723 5.88468 26.0517 7.37624C26.0517 8.89552 26.1751 10.4148 26.3345 11.9285C26.1494 10.4204 26.0003 8.90661 25.9746 7.37624C25.9849 5.87359 25.9952 4.2545 26.7921 2.92928C27.2086 2.28054 27.9592 1.95339 28.6687 1.94785C29.3731 1.90349 30.1546 2.07538 30.6636 2.66313C31.1674 3.24534 31.368 4.02716 31.4965 4.77571C31.625 5.53535 31.6662 6.29499 31.7484 7.04909C32.0466 10.0766 32.3962 13.093 32.7921 16.1093C33.2034 19.1202 33.6353 22.1255 34.1855 25.1142Z" fill="#804B24"/>
<defs>
<linearGradient id="paint0_linear_170_2551" x1="32.8911" y1="31.5159" x2="33.8858" y2="88.1706" gradientUnits="userSpaceOnUse">
<stop stop-color="#FFBC47" stop-opacity="0"/>
<stop offset="1" stop-color="#C86F34"/>
</linearGradient>
<linearGradient id="paint1_linear_170_2551" x1="36.0732" y1="9.34366" x2="38.5958" y2="-0.634323" gradientUnits="userSpaceOnUse">
<stop offset="0.00132565" stop-color="#FFCB4B"/>
<stop offset="1" stop-color="#FFD748"/>
</linearGradient>
<radialGradient id="paint2_radial_170_2551" cx="0" cy="0" r="1" gradientUnits="userSpaceOnUse" gradientTransform="translate(27.4643 9.27468) rotate(179.523) scale(7.52303 8.11323)">
<stop stop-color="#FBA23B"/>
<stop offset="1" stop-color="#FF8000" stop-opacity="0"/>
</radialGradient>
<linearGradient id="paint3_linear_170_2551" x1="30.2605" y1="-1.5586" x2="24.7606" y2="17.5007" gradientUnits="userSpaceOnUse">
<stop offset="0.00132565" stop-color="#FBA23B" stop-opacity="0"/>
<stop offset="1" stop-color="#FBA23B"/>
</linearGradient>
<linearGradient id="paint4_linear_170_2551" x1="29.8561" y1="20.4516" x2="31.0615" y2="2.15509" gradientUnits="userSpaceOnUse">
<stop offset="0.00132565" stop-color="#FFCB4B"/>
<stop offset="1" stop-color="#FFD748"/>
</linearGradient>
<radialGradient id="paint5_radial_170_2551" cx="0" cy="0" r="1" gradientUnits="userSpaceOnUse" gradientTransform="translate(33.2977 5.00584) rotate(85.5229) scale(19.3509 3.02803)">
<stop stop-color="#FBA23B"/>
<stop offset="1" stop-color="#FF8000" stop-opacity="0"/>
</radialGradient>
<linearGradient id="paint6_linear_170_2551" x1="36.5434" y1="9.45879" x2="26.7477" y2="17.9456" gradientUnits="userSpaceOnUse">
<stop offset="0.00132565" stop-color="#FFBC47"/>
<stop offset="1" stop-color="#FBA23B"/>
</linearGradient>
<linearGradient id="paint7_linear_170_2551" x1="31.4692" y1="14.286" x2="19.9855" y2="15.5081" gradientUnits="userSpaceOnUse">
<stop offset="0.00132565" stop-color="#FBA23B" stop-opacity="0"/>
<stop offset="1" stop-color="#FBA23B"/>
</linearGradient>
<linearGradient id="paint8_linear_170_2551" x1="33.2744" y1="38.4868" x2="32.479" y2="6.89531" gradientUnits="userSpaceOnUse">
<stop offset="0.00132565" stop-color="#FFCB4B"/>
<stop offset="1" stop-color="#FFD748"/>
</linearGradient>
<linearGradient id="paint9_linear_170_2551" x1="41.9909" y1="31.0648" x2="8.18197" y2="32.0637" gradientUnits="userSpaceOnUse">
<stop offset="0.00132565" stop-color="#FBA23B" stop-opacity="0"/>
<stop offset="1" stop-color="#FBA23B"/>
</linearGradient>
<radialGradient id="paint10_radial_170_2551" cx="0" cy="0" r="1" gradientUnits="userSpaceOnUse" gradientTransform="translate(35.3923 9.16861) rotate(-93.5324) scale(23.5925 7.81206)">
<stop stop-color="#FBA23B"/>
<stop offset="1" stop-color="#FF8000" stop-opacity="0"/>
</radialGradient>
<linearGradient id="paint11_linear_170_2551" x1="32.6704" y1="18.4404" x2="30.4012" y2="18.4567" gradientUnits="userSpaceOnUse">
<stop offset="0.00132565" stop-color="#FFBC47"/>
<stop offset="1" stop-color="#FBA23B"/>
</linearGradient>
<linearGradient id="paint12_linear_170_2551" x1="28.1669" y1="31.4843" x2="23.9341" y2="31.5691" gradientUnits="userSpaceOnUse">
<stop offset="0.00132565" stop-color="#FBA23B" stop-opacity="0"/>
<stop offset="1" stop-color="#FBA23B"/>
</linearGradient>
<radialGradient id="paint13_radial_170_2551" cx="0" cy="0" r="1" gradientUnits="userSpaceOnUse" gradientTransform="translate(31.2101 26.7265) rotate(179.523) scale(46.8097 50.482)">
<stop stop-color="#FF8000" stop-opacity="0"/>
<stop offset="1" stop-color="#FBA23B"/>
</radialGradient>
<radialGradient id="paint14_radial_170_2551" cx="0" cy="0" r="1" gradientUnits="userSpaceOnUse" gradientTransform="translate(30.3392 41.6843) rotate(-92.9518) scale(13.8816 6.05624)">
<stop stop-color="#FBA23B" stop-opacity="0.4"/>
<stop offset="0.1644" stop-color="#F79F3D" stop-opacity="0.3343"/>
<stop offset="1" stop-color="#E89043" stop-opacity="0"/>
</radialGradient>
<linearGradient id="paint15_linear_170_2551" x1="30.4913" y1="26.3167" x2="24.1066" y2="26.5474" gradientUnits="userSpaceOnUse">
<stop stop-color="#FFBC47" stop-opacity="0"/>
<stop offset="1" stop-color="#C86F34"/>
</linearGradient>
<radialGradient id="paint16_radial_170_2551" cx="0" cy="0" r="1" gradientUnits="userSpaceOnUse" gradientTransform="translate(46.3029 46.6456) rotate(10.5083) scale(5.59899 3.20234)">
<stop stop-color="white" stop-opacity="0.4"/>
<stop offset="1" stop-color="white" stop-opacity="0"/>
</radialGradient>
<linearGradient id="paint17_linear_170_2551" x1="15.9288" y1="9.34363" x2="13.4062" y2="-0.634341" gradientUnits="userSpaceOnUse">
<stop offset="0.00132565" stop-color="#FFCB4B"/>
<stop offset="1" stop-color="#FFD748"/>
</linearGradient>
<radialGradient id="paint18_radial_170_2551" cx="0" cy="0" r="1" gradientUnits="userSpaceOnUse" gradientTransform="translate(24.5377 9.27466) rotate(0.476934) scale(7.52303 8.11324)">
<stop stop-color="#FBA23B"/>
<stop offset="1" stop-color="#FF8000" stop-opacity="0"/>
</radialGradient>
<linearGradient id="paint19_linear_170_2551" x1="21.7414" y1="-1.55861" x2="27.2413" y2="17.5007" gradientUnits="userSpaceOnUse">
<stop offset="0.00132565" stop-color="#FBA23B" stop-opacity="0"/>
<stop offset="1" stop-color="#FBA23B"/>
</linearGradient>
<linearGradient id="paint20_linear_170_2551" x1="22.1462" y1="20.4516" x2="20.9407" y2="2.15508" gradientUnits="userSpaceOnUse">
<stop offset="0.00132565" stop-color="#FFCB4B"/>
<stop offset="1" stop-color="#FFD748"/>
</linearGradient>
<radialGradient id="paint21_radial_170_2551" cx="0" cy="0" r="1" gradientUnits="userSpaceOnUse" gradientTransform="translate(18.7031 5.00835) rotate(94.4771) scale(19.3509 3.02803)">
<stop stop-color="#FBA23B"/>
<stop offset="1" stop-color="#FF8000" stop-opacity="0"/>
</radialGradient>
<linearGradient id="paint22_linear_170_2551" x1="15.4589" y1="9.45877" x2="25.2546" y2="17.9455" gradientUnits="userSpaceOnUse">
<stop offset="0.00132565" stop-color="#FFBC47"/>
<stop offset="1" stop-color="#FBA23B"/>
</linearGradient>
<linearGradient id="paint23_linear_170_2551" x1="20.5328" y1="14.286" x2="32.0165" y2="15.5081" gradientUnits="userSpaceOnUse">
<stop offset="0.00132565" stop-color="#FBA23B" stop-opacity="0"/>
<stop offset="1" stop-color="#FBA23B"/>
</linearGradient>
<linearGradient id="paint24_linear_170_2551" x1="18.7278" y1="38.4868" x2="19.5232" y2="6.89529" gradientUnits="userSpaceOnUse">
<stop offset="0.00132565" stop-color="#FFCB4B"/>
<stop offset="1" stop-color="#FFD748"/>
</linearGradient>
<linearGradient id="paint25_linear_170_2551" x1="10.0107" y1="31.0648" x2="43.8196" y2="32.0637" gradientUnits="userSpaceOnUse">
<stop offset="0.00132565" stop-color="#FBA23B" stop-opacity="0"/>
<stop offset="1" stop-color="#FBA23B"/>
</linearGradient>
<radialGradient id="paint26_radial_170_2551" cx="0" cy="0" r="1" gradientUnits="userSpaceOnUse" gradientTransform="translate(16.609 9.16815) rotate(-86.4676) scale(23.5925 7.81206)">
<stop stop-color="#FBA23B"/>
<stop offset="1" stop-color="#FF8000" stop-opacity="0"/>
</radialGradient>
<linearGradient id="paint27_linear_170_2551" x1="19.3316" y1="18.4404" x2="21.6009" y2="18.4567" gradientUnits="userSpaceOnUse">
<stop offset="0.00132565" stop-color="#FFBC47"/>
<stop offset="1" stop-color="#FBA23B"/>
</linearGradient>
<linearGradient id="paint28_linear_170_2551" x1="23.8347" y1="31.4843" x2="28.0675" y2="31.5691" gradientUnits="userSpaceOnUse">
<stop offset="0.00132565" stop-color="#FBA23B" stop-opacity="0"/>
<stop offset="1" stop-color="#FBA23B"/>
</linearGradient>
<radialGradient id="paint29_radial_170_2551" cx="0" cy="0" r="1" gradientUnits="userSpaceOnUse" gradientTransform="translate(20.7919 26.7265) rotate(0.476934) scale(46.8097 50.482)">
<stop stop-color="#FF8000" stop-opacity="0"/>
<stop offset="1" stop-color="#FBA23B"/>
</radialGradient>
<radialGradient id="paint30_radial_170_2551" cx="0" cy="0" r="1" gradientUnits="userSpaceOnUse" gradientTransform="translate(21.6624 41.682) rotate(-87.0482) scale(13.8816 6.05624)">
<stop stop-color="#FBA23B" stop-opacity="0.4"/>
<stop offset="0.1644" stop-color="#F79F3D" stop-opacity="0.3343"/>
<stop offset="1" stop-color="#E89043" stop-opacity="0"/>
</radialGradient>
<linearGradient id="paint31_linear_170_2551" x1="21.4791" y1="27.1523" x2="27.8639" y2="27.383" gradientUnits="userSpaceOnUse">
<stop stop-color="#FFBC47" stop-opacity="0"/>
<stop offset="1" stop-color="#C86F34"/>
</linearGradient>
<radialGradient id="paint32_radial_170_2551" cx="0" cy="0" r="1" gradientUnits="userSpaceOnUse" gradientTransform="translate(5.69947 46.6479) rotate(169.492) scale(5.59899 3.20234)">
<stop stop-color="white" stop-opacity="0.4"/>
<stop offset="1" stop-color="white" stop-opacity="0"/>
</radialGradient>
<linearGradient id="paint33_linear_170_2551" x1="21.5002" y1="26.5709" x2="27.8849" y2="26.8015" gradientUnits="userSpaceOnUse">
<stop stop-color="#FFBC47" stop-opacity="0"/>
<stop offset="1" stop-color="#C86F34"/>
</linearGradient>
</defs>
</svg>
