<svg width="52" height="59" viewBox="0 0 52 59" fill="none" xmlns="http://www.w3.org/2000/svg">
<path d="M26.2075 58.3C23.9776 58.3 23.1299 56.5152 23.3024 53.0575C23.417 50.7781 24.1847 44.4235 20.9676 41.2034C17.9673 38.2016 17.0947 38.4682 13.676 34.5919C10.2587 30.717 7.41024 31.5141 3.4227 31.8567C-1.58659 32.2863 0.119991 4.47541 3.65052 4.95753C6.15654 5.30012 11.8534 5.98392 12.7647 5.98392C13.676 5.98392 19.9252 1.14064 25.4108 1.08262C34.2958 0.990063 39.196 2.56489 39.196 2.56489L41.8001 8.47464L42.6713 26.494L38.5112 35.1625C38.5112 35.1625 32.9289 34.2507 31.3342 36.758C29.7394 39.2653 32.5879 42.3431 32.5879 49.5238C32.5879 56.7044 27.3466 58.3 26.2075 58.3Z" fill="url(#paint0_linear_170_2621)"/>
<path d="M39.5065 2.61734L39.1682 3.85096C38.1672 3.95733 36.879 3.50145 35.1199 3.51527C26.7182 3.58019 18.6864 5.99354 15.2401 8.72323C12.9826 10.5108 11.9927 12.8896 10.3979 12.2058C8.43037 11.3618 2.84807 10.0494 0.794922 12.6492C1.36931 8.20105 2.39381 4.78618 3.65027 4.95748C6.1563 5.30007 11.8532 5.98387 12.7645 5.98387C13.6758 5.98387 19.751 1.2677 25.4106 1.08259C32.7326 0.843603 39.2359 2.10484 39.2359 2.10484L39.5065 2.61734Z" fill="url(#paint1_linear_170_2621)"/>
<path d="M6.98099 30.1008C10.2851 29.1891 12.3838 30.6976 14.0724 32.7504C15.75 34.7894 17.2053 36.5977 21.4207 39.3329C25.636 42.0682 25.0948 49.5915 24.7524 52.0987C24.4099 54.606 24.6378 58.3 26.2076 58.3C23.9778 58.3 23.13 56.5152 23.3026 53.0575C23.4172 50.7781 24.1849 44.4235 20.9678 41.2034C17.9675 38.2016 17.0948 38.4682 13.6761 34.5919C10.2588 30.717 7.4104 31.5141 3.42285 31.8566C3.42423 30.9919 3.67691 31.0126 6.98099 30.1008Z" fill="url(#paint2_linear_170_2621)"/>
<path d="M31.334 36.758C29.7392 39.2653 32.5877 42.3431 32.5877 49.5238C32.5877 56.7044 27.3478 58.3 26.2073 58.3C25.9077 58.3 25.6412 58.2668 25.4023 58.2033C30.0499 57.9118 32.8486 52.0476 31.247 46.0011C29.9477 41.0943 29.3001 37.16 31.4223 34.853C32.7948 33.3597 35.5245 33.6139 38.5124 35.1624C38.511 35.1624 32.9287 34.2507 31.334 36.758Z" fill="url(#paint3_linear_170_2621)"/>
<path d="M31.6473 34.1996C28.9135 33.2878 22.0084 31.1425 16.7782 26.3973C3.52322 14.3719 26.1534 12.8648 30.8272 2.58007C31.7205 0.614296 36.9424 12.8897 36.9424 12.8897L38.6311 15.7326L33.7516 28.7333L31.6473 34.1996Z" fill="url(#paint4_linear_170_2621)"/>
<path d="M32.0491 33.1578C29.3152 32.246 18.1465 25.0875 18.1465 21.5524C18.1465 11.3505 25.8813 16.3858 30.0622 4.34804C30.6407 2.68065 32.6856 1.2785 32.6856 1.2785C34.3797 2.66131 36.9438 12.8894 36.9438 12.8894L38.6324 15.7324L33.7529 28.7331L32.0491 33.1578Z" fill="url(#paint5_linear_170_2621)"/>
<path d="M38.359 1.88943L43.592 7.87518L44.7449 32.8805L31.6459 34.2011C28.6386 32.5821 28.2907 30.3676 29.4077 26.8118C29.8772 25.3157 27.9676 24.8875 27.8447 20.5291C27.7591 17.5079 29.7363 17.4941 29.7363 16.5961C29.7363 15.6982 28.7519 15.7783 28.4246 13.1771C27.9579 9.45553 31.0729 9.38369 31.0729 8.58799C31.0729 7.79228 29.3428 7.31984 29.4491 4.28622C29.5844 0.438934 22.4433 1.21667 17.6149 4.71722C15.6322 6.15529 13.9021 6.3031 12.5518 5.97708C12.636 5.98123 12.7078 5.98399 12.7616 5.98399C13.6729 5.98399 19.7937 1.08268 25.4077 1.08268C31.9731 1.08268 36.5129 1.46672 38.359 1.88943Z" fill="url(#paint6_linear_170_2621)"/>
<path d="M39.563 32.5516C35.5188 32.5516 33.2972 28.598 34.8354 25.5602C36.3735 22.5225 31.9869 18.5011 32.4426 16.5215C32.8982 14.5419 33.6963 9.53149 34.3217 8.70263C34.9486 7.87377 33.2958 5.99365 33.2958 5.99365L38.4225 5.36648L43.2067 7.47731L43.0355 21.9505L43.5478 31.0127L39.563 32.5516Z" fill="url(#paint7_linear_170_2621)"/>
<path d="M13.6755 34.592C11.4553 32.0751 9.47536 31.5294 7.26758 31.5501C7.90409 30.5223 8.34731 29.3992 8.30174 28.301C8.18162 25.4221 8.81538 21.8732 9.30001 25.5643C9.66867 28.3756 11.5741 31.8499 13.8661 34.8062C13.804 34.7357 13.7418 34.6666 13.6755 34.592Z" fill="url(#paint8_linear_170_2621)"/>
<path d="M42.6269 35.2755C37.8454 35.4578 29.249 35.7286 29.057 30.7167C28.919 27.0822 31.4954 25.89 35.4802 25.738C39.465 25.5861 41.4574 25.5101 43.1074 25.4479C44.7574 25.3858 49.9489 25.4162 50 29.805C50.0635 35.2879 42.6269 35.2755 42.6269 35.2755Z" fill="url(#paint9_linear_170_2621)"/>
<path d="M34.7623 17.1584C33.481 17.1957 29.6744 16.2356 29.3181 13.8167C29.0378 11.9144 30.0085 9.45688 33.3209 8.87668C37.5169 8.14175 44.5089 7.75634 47.1213 8.73439C48.288 9.17093 49.3056 10.3935 49.3594 12.246C49.4133 14.0985 48.0381 16.5948 45.0488 16.6818C42.0595 16.7674 40.502 16.7218 38.7982 16.9235C36.7492 17.1639 35.7868 17.128 34.7623 17.1584Z" fill="url(#paint10_linear_170_2621)"/>
<path d="M33.4272 8.70398C31.9746 8.70398 30.1797 7.42201 30.1797 5.28493C30.1797 3.14785 30.7347 1.5661 33.8538 0.967942C36.9729 0.369781 41.9711 0.882287 43.8503 1.48045C45.3153 1.94737 45.8579 3.31776 45.8579 5.58331C45.8579 7.84887 44.4495 8.24534 42.9114 8.24534C41.3733 8.24534 39.5065 7.96491 38.4406 8.02017C35.4637 8.17765 34.8797 8.70398 33.4272 8.70398Z" fill="url(#paint11_linear_170_2621)"/>
<path d="M42.2195 34.2642C38.0441 34.4231 30.5371 34.6648 30.3866 30.7029C30.2775 27.8295 32.5309 26.8791 36.0103 26.7465C39.4898 26.6139 48.644 26.4467 48.6744 29.9155C48.7117 34.2504 42.2195 34.2642 42.2195 34.2642Z" fill="url(#paint12_linear_170_2621)"/>
<path d="M35.148 16.1362C34.0324 16.1679 30.9092 15.9027 30.6096 13.5915C30.4066 12.0278 31.2171 10.0192 34.1014 9.53979C37.7562 8.93196 43.8425 8.60594 46.1166 9.40303C47.1314 9.75944 48.0164 10.7582 48.0592 12.2764C48.1034 13.7946 46.7048 15.6554 44.1035 15.7314C41.5022 15.8074 40.1173 15.5656 38.633 15.7342C36.8491 15.9345 36.04 16.1113 35.148 16.1362Z" fill="url(#paint13_linear_170_2621)"/>
<path d="M34.0486 7.9248C32.7922 7.9248 31.2402 6.89287 31.2402 5.17161C31.2402 3.45034 31.7207 2.17666 34.4187 1.69592C37.1166 1.21518 41.4397 1.62684 43.0662 2.10896C44.3323 2.48471 44.8032 3.58848 44.8032 5.41336C44.8032 7.23823 43.584 7.55596 42.253 7.55596C40.9219 7.55596 39.3078 7.32941 38.3855 7.375C35.8091 7.50071 35.3037 7.9248 34.0486 7.9248Z" fill="url(#paint14_linear_170_2621)"/>
<path d="M33.2825 30.7005C33.386 33.4302 35.5621 34.7385 38.3111 35.3408C33.9231 35.2385 29.1983 34.418 29.0561 30.7171C28.918 27.0825 31.4944 25.8904 35.4792 25.7384C35.9183 25.7218 36.3311 25.7052 36.7233 25.6914C34.4865 26.3462 33.1734 27.823 33.2825 30.7005Z" fill="url(#paint15_linear_170_2621)"/>
<path d="M33.6576 34.8474C31.1046 34.2893 29.1468 33.0819 29.057 30.7183C28.9424 27.6971 30.7056 26.364 33.5927 25.9123C27.7357 28.251 29.8371 34.0116 33.6576 34.8474Z" fill="url(#paint16_linear_170_2621)"/>
<path d="M26.8594 6.13025C26.1843 4.57891 22.9713 4.48082 19.6824 5.91336C16.3935 7.34452 14.2754 9.76339 14.9506 11.3161C15.6258 12.8675 18.8388 12.9655 22.1277 11.533C25.4152 10.1005 27.5346 7.68159 26.8594 6.13025Z" fill="url(#paint17_radial_170_2621)"/>
<path d="M46.2091 29.9682C46.1759 27.8712 43.3731 26.8765 40.3065 26.69C37.7991 26.5381 35.0155 28.3132 35.0873 30.3619C35.1591 32.4105 35.5236 34.2257 40.7345 34.0448C43.8052 33.9384 46.2408 32.0168 46.2091 29.9682Z" fill="url(#paint18_radial_170_2621)"/>
<path d="M46.7652 11.5345C46.7473 8.63077 43.5564 9.18748 40.4898 8.9858C36.6017 8.72885 34.0238 9.94036 34.0225 11.9904C34.0197 14.0404 35.4985 15.5338 40.7135 15.5421C43.7856 15.5462 46.7873 15.2644 46.7652 11.5345Z" fill="url(#paint19_radial_170_2621)"/>
<path d="M43.9543 4.21286C43.9391 1.73733 41.0396 1.40027 38.292 1.39889C35.5443 1.39613 32.5619 2.85354 32.5605 4.60105C32.5592 6.34857 33.8805 7.62225 38.5432 7.62916C41.2895 7.6333 43.9736 7.39292 43.9543 4.21286Z" fill="url(#paint20_radial_170_2621)"/>
<path d="M32.883 13.228C33.3193 16.5338 35.8544 16.3404 38.7608 16.683C35.4153 16.933 34.0111 16.9689 34.0111 16.9689C33.699 16.9993 33.3497 17.0007 32.9866 16.9634C31.8999 16.7244 30.6683 16.2299 29.9365 15.3015C29.688 14.9479 29.4864 14.5307 29.3539 14.0362C29.3401 13.9643 29.3263 13.8911 29.318 13.8165C29.0819 11.9074 30.0083 9.4567 33.3207 8.8765C33.7984 8.79223 34.3135 8.71348 34.8533 8.64026C35.1115 8.60711 35.3932 8.57259 35.6956 8.53391C35.777 8.52423 35.8585 8.51456 35.9413 8.50489C34.1133 9.36828 32.5613 10.7981 32.883 13.228Z" fill="url(#paint21_linear_170_2621)"/>
<path d="M33.6922 16.9896C33.4672 16.9965 33.2283 16.9882 32.9839 16.9634C31.8876 16.7216 30.645 16.2201 29.9173 15.2766C29.6771 14.9285 29.4838 14.5168 29.354 14.0347C29.3402 13.9629 29.3305 13.891 29.3181 13.8164C28.9826 11.9363 29.9132 9.72049 32.8072 8.98695C27.8697 11.7111 29.9767 16.9868 33.6922 16.9896Z" fill="url(#paint22_linear_170_2621)"/>
<path d="M36.5675 8.1996C35.1081 8.41372 34.5089 8.7052 33.4291 8.7052C31.9766 8.7052 30.1816 7.42323 30.1816 5.28616C30.1816 4.50979 30.2562 3.80803 30.4978 3.19882C30.7436 2.69598 31.1012 2.22491 31.5914 1.82706C32.1299 1.45131 32.8616 1.15982 33.8544 0.969182C34.5213 0.84071 35.2752 0.764731 36.0649 0.727432C34.5406 1.61293 31.9586 2.08953 32.4999 5.05408C33.0978 8.32807 35.0515 7.88602 36.5675 8.1996Z" fill="url(#paint23_linear_170_2621)"/>
<path d="M33.3643 8.70282C31.9241 8.66552 30.1816 7.39047 30.1816 5.28517C30.1816 3.32769 30.6497 1.83574 33.1268 1.1395C29.2579 3.62607 30.4992 7.82147 33.3643 8.70282Z" fill="url(#paint24_linear_170_2621)"/>
<path d="M50.0001 29.8055C50.0056 30.2973 49.9504 30.7435 49.8468 31.151C50.2321 29.438 48.7064 27.7361 44.6622 26.91C41.9822 26.3629 34.8645 25.6791 29.9395 27.6352C31.0026 26.3505 32.9591 25.8366 35.4803 25.7399C39.4651 25.588 41.4575 25.512 43.1075 25.4498C44.7575 25.3849 49.9476 25.4167 50.0001 29.8055Z" fill="url(#paint25_linear_170_2621)"/>
<path d="M49.3592 12.3618C49.3537 14.2019 47.9744 16.5959 45.0472 16.6802C42.0579 16.7658 40.5005 16.7203 38.7966 16.9219C36.749 17.1637 35.7866 17.1278 34.7621 17.1568C33.9875 17.1789 32.0766 16.9454 30.7773 16.1373C32.2382 15.6303 34.6185 14.8677 37.9682 15.0819C45.9944 15.5985 48.2781 14.6274 49.3592 12.3618Z" fill="url(#paint26_linear_170_2621)"/>
<path d="M33.0405 25.4498C31.3326 25.4843 28.6194 24.4786 28.549 20.9298C28.4786 17.3823 31.5811 16.5368 32.948 16.5092C34.315 16.4816 39.0937 16.1555 44.988 16.0381C50.8823 15.9207 51.6721 19.0856 51.7052 20.7433C51.7384 22.4024 50.6876 25.4014 47.1419 25.4733C36.89 25.6791 33.0405 25.4498 33.0405 25.4498Z" fill="url(#paint27_linear_170_2621)"/>
<path d="M33.9574 24.4206C32.4717 24.4496 30.1162 23.6788 30.0624 20.9422C30.0071 18.2042 32.7065 17.5466 33.8939 17.5231C35.0827 17.4997 39.2373 17.2386 44.3612 17.1363C49.4851 17.0341 50.1658 19.4737 50.1906 20.7543C50.2169 22.0335 50.0401 24.3488 46.957 24.411C38.0471 24.5878 33.9574 24.4206 33.9574 24.4206Z" fill="url(#paint28_linear_170_2621)"/>
<path d="M32.2149 21.2723C32.3861 24.9151 34.928 24.9261 37.7971 25.5547C34.442 25.534 33.0405 25.4511 33.0405 25.4511C31.3326 25.4856 28.6194 24.4799 28.549 20.931C28.4786 17.3835 31.5811 16.5381 32.948 16.5105C33.441 16.5008 34.3785 16.4525 35.6487 16.3889C33.7544 17.1694 32.0892 18.5923 32.2149 21.2723Z" fill="url(#paint29_linear_170_2621)"/>
<path d="M48.704 20.8951C48.8227 17.9941 45.6015 17.4484 42.5321 17.302C39.4628 17.1556 36.051 18.7069 35.953 20.7542C35.8549 22.8014 37.2619 24.3624 42.47 24.6152C45.5394 24.7631 48.5521 24.6222 48.704 20.8951Z" fill="url(#paint30_radial_170_2621)"/>
<path d="M32.7216 25.4442C31.015 25.353 28.6153 24.2645 28.5491 20.9311C28.4814 17.5576 31.2815 16.6279 32.7327 16.5216C27.1172 18.7885 28.9578 25.1099 32.7216 25.4442Z" fill="url(#paint31_linear_170_2621)"/>
<path d="M51.6961 21.1023C50.956 15.8529 37.0839 16.8144 29.5879 17.9416C30.6 16.8572 32.105 16.5284 32.9486 16.5105C34.3155 16.4828 39.0942 16.1568 44.9885 16.0394C50.8829 15.922 51.6727 19.0868 51.7058 20.7445C51.7072 20.8578 51.7044 20.978 51.6961 21.1023Z" fill="url(#paint32_linear_170_2621)"/>
<path d="M44.7462 9.41275C42.0593 9.29395 34.9499 8.40983 29.7666 11.1879C30.3451 10.1131 31.4649 9.20001 33.3192 8.87537C37.5153 8.14045 44.5073 7.75503 47.1196 8.73309C48.2864 9.16962 49.304 10.3922 49.3578 12.2447C49.1852 10.6339 47.6512 9.54123 44.7462 9.41275Z" fill="url(#paint33_linear_170_2621)"/>
<path d="M45.6525 3.57904C43.892 2.23907 40.8489 1.44751 36.4582 2.18933C33.7464 2.64796 31.888 2.80406 30.666 2.83722C31.1548 1.95311 32.0978 1.30384 33.8541 0.966775C36.9732 0.368622 41.9714 0.881135 43.8506 1.47929C44.8157 1.78873 45.3791 2.49048 45.6525 3.57904Z" fill="url(#paint34_linear_170_2621)"/>
<path d="M30.7568 7.20789C34.0098 8.39316 35.6046 6.6346 39.0854 6.6346C42.7002 6.6346 44.4233 8.09476 45.7074 6.70643C45.3042 7.98701 44.1499 8.24534 42.9114 8.24534C41.3733 8.24534 39.5065 7.96491 38.4392 8.02017C35.4624 8.17627 34.8797 8.70398 33.4272 8.70398C32.4869 8.70398 31.4044 8.16661 30.7568 7.20789Z" fill="url(#paint35_linear_170_2621)"/>
<path d="M3.6523 4.95731C6.15832 5.2999 11.8552 5.98371 12.7665 5.98371C4.50421 11.8921 8.17833 24.4589 11.2256 30.8149C11.6536 31.7073 11.9174 32.4395 12.0596 33.0611C9.31053 30.9641 6.76723 31.5692 3.4231 31.8565C-1.58619 32.2861 0.121771 4.47519 3.6523 4.95731Z" fill="url(#paint36_linear_170_2621)"/>
<path d="M8.86121 10.667C8.00654 11.8067 8.74661 9.35603 9.43145 7.58917C10.0127 6.08617 5.55436 6.97443 2.14258 6.60559C2.58855 5.50458 3.09804 4.88156 3.65172 4.95753C6.15774 5.30013 11.8546 5.98394 12.7659 5.98394C11.4805 7.07665 9.7145 9.52732 8.86121 10.667Z" fill="url(#paint37_linear_170_2621)"/>
<path d="M12.765 5.98233C12.0567 6.58601 11.202 7.60272 10.4329 8.5849C10.4329 8.5849 6.28522 6.46168 1.83789 7.46044C2.35014 5.8359 2.96595 4.86338 3.65079 4.95732C6.1582 5.29853 11.8537 5.98233 12.765 5.98233Z" fill="url(#paint38_linear_170_2621)"/>
<path d="M28.4761 47.599C26.8524 47.2482 25.5366 49.4916 24.7937 52.1094C24.1862 54.2506 25.0119 56.9776 26.6066 57.2842C28.2014 57.5923 29.6732 57.6061 30.5527 53.0681C31.0691 50.3951 30.064 47.9416 28.4761 47.599Z" fill="url(#paint39_radial_170_2621)"/>
<path d="M33.3642 8.70263C32.4708 8.60869 31.6617 8.12935 31.1053 7.4704C30.5406 6.80593 30.2768 5.93839 30.3348 5.06671C30.3404 4.1895 30.4729 3.29294 30.97 2.58289C31.4629 1.86592 32.2913 1.43906 33.1267 1.13929C32.2651 1.33407 31.3635 1.69049 30.7863 2.44613C30.2009 3.19349 30.0656 4.16739 30.0366 5.06118C29.9979 5.97569 30.2893 6.94822 30.9341 7.62236C31.5595 8.30341 32.4625 8.72059 33.3642 8.70263Z" fill="#804B24"/>
<path d="M31.9311 16.6542C31.3429 16.3987 30.8003 16.0492 30.3515 15.614C29.8945 15.1844 29.6515 14.5959 29.4844 13.9991L29.4858 14.0088C29.2704 12.9202 29.4527 11.7612 30.0919 10.8564C30.716 9.93911 31.7295 9.33956 32.8065 8.98868C31.6977 9.2028 30.5807 9.74294 29.8793 10.7058C29.5328 11.1796 29.2925 11.7336 29.1765 12.3124C29.0592 12.8912 29.113 13.4963 29.2207 14.0613L29.2235 14.071C29.3988 14.6981 29.7109 15.3267 30.2259 15.7508C30.7188 16.1887 31.3236 16.4581 31.9311 16.6542Z" fill="#804B24"/>
<path d="M32.7215 25.4454C31.6652 25.3252 30.6435 24.8859 29.9158 24.1468C29.1854 23.4078 28.7906 22.3897 28.727 21.3522C28.6207 20.3189 28.7878 19.24 29.3787 18.3822C29.9614 17.5215 30.9141 16.9441 31.9331 16.6457C30.8893 16.8364 29.851 17.3516 29.191 18.2482C28.5172 19.1378 28.3391 20.3023 28.4288 21.3771C28.5172 22.4574 28.9411 23.5597 29.7557 24.3098C30.562 25.0682 31.6569 25.4343 32.7215 25.4454Z" fill="#804B24"/>
<path d="M33.6578 34.8474C32.5284 34.538 31.4059 34.1111 30.5153 33.3776C29.6178 32.6482 29.1318 31.5223 29.2064 30.3688C29.1912 29.2236 29.5654 28.0549 30.4352 27.2965C31.2926 26.5284 32.4497 26.1554 33.5916 25.9123C32.4331 26.049 31.2278 26.3391 30.2847 27.1238C29.3196 27.8974 28.9095 29.1794 28.9081 30.366C28.846 31.572 29.3886 32.8347 30.3717 33.5558C31.3354 34.2948 32.5049 34.643 33.6578 34.8474Z" fill="#804B24"/>
<path d="M29.7686 11.1892C30.5459 9.84232 32.0399 9.14471 33.5158 8.94579C35.0181 8.71371 36.5314 8.55485 38.0488 8.45815C39.5634 8.32968 41.0836 8.24955 42.6038 8.25508C43.3632 8.26475 44.124 8.28409 44.8792 8.35869C45.6345 8.41947 46.3967 8.49683 47.1229 8.73581C45.6856 8.19568 44.1267 8.11002 42.6079 8.05615C41.0809 8.01747 39.5524 8.06029 38.0281 8.15976C36.5065 8.29099 34.9891 8.48301 33.4841 8.74963C32.7275 8.87395 31.9736 9.1088 31.3108 9.51217C30.6508 9.91969 30.1096 10.5068 29.7686 11.1892Z" fill="#804B24"/>
<path d="M29.5879 17.9417C30.1706 17.3615 30.9203 16.9788 31.7032 16.7841C32.4819 16.5506 33.3007 16.6017 34.1236 16.5644L39.0376 16.4221L43.9489 16.1804C45.5781 16.0809 47.2364 16.0588 48.798 16.5934C47.2764 15.9441 45.5671 15.8917 43.9447 15.9814L39.0307 16.1237L34.1194 16.3669C33.3117 16.4221 32.4626 16.3834 31.6631 16.6445C30.8734 16.8918 30.1347 17.327 29.5879 17.9417Z" fill="#804B24"/>
<path d="M47.1417 25.4743C45.9667 25.4715 44.7903 25.4384 43.6153 25.4494L40.0903 25.4425L36.5667 25.3942C35.3931 25.3873 34.2167 25.3804 33.0472 25.3334H33.0376C31.8819 25.3527 30.6848 24.9576 29.8522 24.1302C29.0031 23.311 28.6027 22.1188 28.5488 20.9308C28.5585 21.5262 28.622 22.1271 28.8043 22.7032C28.9893 23.2778 29.3055 23.8152 29.7349 24.2476C30.5909 25.1276 31.8253 25.5641 33.0431 25.5669H33.0334C35.3876 25.7091 37.739 25.7105 40.0903 25.6732C42.4431 25.647 44.7931 25.6028 47.1417 25.4743Z" fill="#804B24"/>
<defs>
<linearGradient id="paint0_linear_170_2621" x1="38.6962" y1="30.1653" x2="21.558" y2="29.4776" gradientUnits="userSpaceOnUse">
<stop offset="0.00132565" stop-color="#FFCB4B"/>
<stop offset="1" stop-color="#FFD748"/>
</linearGradient>
<linearGradient id="paint1_linear_170_2621" x1="20.1976" y1="6.40047" x2="19.853" y2="15.4128" gradientUnits="userSpaceOnUse">
<stop offset="0.00132565" stop-color="#FFCB4B"/>
<stop offset="1" stop-color="#FFD748"/>
</linearGradient>
<linearGradient id="paint2_linear_170_2621" x1="18.001" y1="40.3276" x2="30.9116" y2="21.8688" gradientUnits="userSpaceOnUse">
<stop offset="0.00132565" stop-color="#FFCB4B"/>
<stop offset="1" stop-color="#FFD748"/>
</linearGradient>
<linearGradient id="paint3_linear_170_2621" x1="8.65762" y1="47.682" x2="41.724" y2="45.2054" gradientUnits="userSpaceOnUse">
<stop offset="0.3118" stop-color="#FFBC47" stop-opacity="0"/>
<stop offset="1" stop-color="#FF8900"/>
</linearGradient>
<linearGradient id="paint4_linear_170_2621" x1="8.02793" y1="18.2828" x2="51.4497" y2="18.2828" gradientUnits="userSpaceOnUse">
<stop stop-color="#FFBC47" stop-opacity="0"/>
<stop offset="1" stop-color="#FFA754"/>
</linearGradient>
<linearGradient id="paint5_linear_170_2621" x1="1.02636" y1="18.2172" x2="86.8107" y2="15.4844" gradientUnits="userSpaceOnUse">
<stop stop-color="#FFBC47" stop-opacity="0"/>
<stop offset="1" stop-color="#C86F34"/>
</linearGradient>
<linearGradient id="paint6_linear_170_2621" x1="14.6567" y1="7.00729" x2="28.8435" y2="14.695" gradientUnits="userSpaceOnUse">
<stop stop-color="#FFBC47" stop-opacity="0"/>
<stop offset="1" stop-color="#C86F34"/>
</linearGradient>
<linearGradient id="paint7_linear_170_2621" x1="30.9082" y1="17.9222" x2="42.7381" y2="19.4757" gradientUnits="userSpaceOnUse">
<stop stop-color="#643800" stop-opacity="0"/>
<stop offset="1" stop-color="#643800"/>
</linearGradient>
<linearGradient id="paint8_linear_170_2621" x1="9.91276" y1="44.0391" x2="12.4786" y2="1.55263" gradientUnits="userSpaceOnUse">
<stop stop-color="#FFBC47" stop-opacity="0"/>
<stop offset="1" stop-color="#FFA754"/>
</linearGradient>
<linearGradient id="paint9_linear_170_2621" x1="49.1894" y1="30.3945" x2="32.4025" y2="30.3945" gradientUnits="userSpaceOnUse">
<stop offset="0.00132565" stop-color="#FFBC47"/>
<stop offset="1" stop-color="#FFD748"/>
</linearGradient>
<linearGradient id="paint10_linear_170_2621" x1="49.1894" y1="12.6536" x2="32.3933" y2="12.6536" gradientUnits="userSpaceOnUse">
<stop offset="0.00132565" stop-color="#FFBC47"/>
<stop offset="1" stop-color="#FFD748"/>
</linearGradient>
<linearGradient id="paint11_linear_170_2621" x1="49.1895" y1="4.70285" x2="32.4026" y2="4.70285" gradientUnits="userSpaceOnUse">
<stop offset="0.00132565" stop-color="#FFBC47"/>
<stop offset="1" stop-color="#FFD748"/>
</linearGradient>
<linearGradient id="paint12_linear_170_2621" x1="30.1393" y1="30.3112" x2="38.8829" y2="30.5105" gradientUnits="userSpaceOnUse">
<stop offset="0.00132565" stop-color="#FFCB4B"/>
<stop offset="1" stop-color="#FFD748"/>
</linearGradient>
<linearGradient id="paint13_linear_170_2621" x1="45.4305" y1="12.5347" x2="36.5178" y2="12.5347" gradientUnits="userSpaceOnUse">
<stop offset="0.00132565" stop-color="#FFCB4B"/>
<stop offset="1" stop-color="#FFD748"/>
</linearGradient>
<linearGradient id="paint14_linear_170_2621" x1="45.4302" y1="4.70281" x2="36.5174" y2="4.70281" gradientUnits="userSpaceOnUse">
<stop offset="0.00132565" stop-color="#FFCB4B"/>
<stop offset="1" stop-color="#FFD748"/>
</linearGradient>
<linearGradient id="paint15_linear_170_2621" x1="34.5507" y1="30.5164" x2="29.7951" y2="30.5164" gradientUnits="userSpaceOnUse">
<stop offset="0.00132565" stop-color="#FBA23B" stop-opacity="0"/>
<stop offset="1" stop-color="#FBA23B"/>
</linearGradient>
<linearGradient id="paint16_linear_170_2621" x1="33.6958" y1="30.3795" x2="28.2268" y2="30.3795" gradientUnits="userSpaceOnUse">
<stop offset="0.00132565" stop-color="#FFBC47"/>
<stop offset="1" stop-color="#E89043"/>
</linearGradient>
<radialGradient id="paint17_radial_170_2621" cx="0" cy="0" r="1" gradientUnits="userSpaceOnUse" gradientTransform="translate(20.4571 9.91832) rotate(-23.5251) scale(6.67627 3.09971)">
<stop stop-color="#FBE07A"/>
<stop offset="1" stop-color="#FFD748" stop-opacity="0"/>
</radialGradient>
<radialGradient id="paint18_radial_170_2621" cx="0" cy="0" r="1" gradientUnits="userSpaceOnUse" gradientTransform="translate(40.6563 30.3529) rotate(-2.02718) scale(5.71235 3.74919)">
<stop stop-color="#FBE07A"/>
<stop offset="1" stop-color="#FFD748"/>
</radialGradient>
<radialGradient id="paint19_radial_170_2621" cx="0" cy="0" r="1" gradientUnits="userSpaceOnUse" gradientTransform="translate(40.3794 11.9454) rotate(0.0544055) scale(6.1347 3.30707)">
<stop stop-color="#FBE07A"/>
<stop offset="1" stop-color="#FFD748" stop-opacity="0"/>
</radialGradient>
<radialGradient id="paint20_radial_170_2621" cx="0" cy="0" r="1" gradientUnits="userSpaceOnUse" gradientTransform="translate(38.2573 4.51003) rotate(0.0539601) scale(5.61681 3.51542)">
<stop stop-color="#FBE07A"/>
<stop offset="1" stop-color="#FFD748" stop-opacity="0"/>
</radialGradient>
<linearGradient id="paint21_linear_170_2621" x1="35.1199" y1="12.7486" x2="28.2275" y2="12.7486" gradientUnits="userSpaceOnUse">
<stop offset="0.00132565" stop-color="#FBA23B" stop-opacity="0"/>
<stop offset="1" stop-color="#FBA23B"/>
</linearGradient>
<linearGradient id="paint22_linear_170_2621" x1="33.655" y1="12.9895" x2="29.9424" y2="12.9895" gradientUnits="userSpaceOnUse">
<stop offset="0.00132565" stop-color="#FFBC47"/>
<stop offset="1" stop-color="#FBA23B"/>
</linearGradient>
<linearGradient id="paint23_linear_170_2621" x1="34.8729" y1="4.65748" x2="26.8125" y2="6.13778" gradientUnits="userSpaceOnUse">
<stop offset="0.00132565" stop-color="#FBA23B" stop-opacity="0"/>
<stop offset="1" stop-color="#FBA23B"/>
</linearGradient>
<linearGradient id="paint24_linear_170_2621" x1="34.0394" y1="4.9213" x2="30.6324" y2="4.9213" gradientUnits="userSpaceOnUse">
<stop offset="0.00132565" stop-color="#FFBC47"/>
<stop offset="1" stop-color="#FBA23B"/>
</linearGradient>
<linearGradient id="paint25_linear_170_2621" x1="39.4698" y1="31.4519" x2="41.6365" y2="20.966" gradientUnits="userSpaceOnUse">
<stop stop-color="#FFBC47" stop-opacity="0"/>
<stop offset="1" stop-color="#C86F34"/>
</linearGradient>
<linearGradient id="paint26_linear_170_2621" x1="41.1156" y1="10.734" x2="38.7516" y2="19.2631" gradientUnits="userSpaceOnUse">
<stop stop-color="#FFBC47" stop-opacity="0"/>
<stop offset="1" stop-color="#C86F34"/>
</linearGradient>
<linearGradient id="paint27_linear_170_2621" x1="49.1895" y1="20.7979" x2="32.4026" y2="20.7979" gradientUnits="userSpaceOnUse">
<stop offset="0.00132565" stop-color="#FFBC47"/>
<stop offset="1" stop-color="#FFD748"/>
</linearGradient>
<linearGradient id="paint28_linear_170_2621" x1="31.7254" y1="21.2664" x2="44.5845" y2="20.7967" gradientUnits="userSpaceOnUse">
<stop offset="0.00132565" stop-color="#FFCB4B"/>
<stop offset="0.7382" stop-color="#FFD748"/>
<stop offset="1" stop-color="#FFCB4B"/>
</linearGradient>
<linearGradient id="paint29_linear_170_2621" x1="36.7434" y1="20.9713" x2="27.1362" y2="20.9713" gradientUnits="userSpaceOnUse">
<stop offset="0.00132565" stop-color="#FBA23B" stop-opacity="0"/>
<stop offset="1" stop-color="#FBA23B"/>
</linearGradient>
<radialGradient id="paint30_radial_170_2621" cx="0" cy="0" r="1" gradientUnits="userSpaceOnUse" gradientTransform="translate(42.322 20.9522) rotate(2.73606) scale(6.28155 4.12298)">
<stop stop-color="#FBE07A"/>
<stop offset="1" stop-color="#FFD748" stop-opacity="0"/>
</radialGradient>
<linearGradient id="paint31_linear_170_2621" x1="32.2778" y1="20.983" x2="29.2445" y2="20.983" gradientUnits="userSpaceOnUse">
<stop offset="0.00132565" stop-color="#FFBC47"/>
<stop offset="1" stop-color="#FBA23B"/>
</linearGradient>
<linearGradient id="paint32_linear_170_2621" x1="40.267" y1="21.9077" x2="42.0915" y2="10.3105" gradientUnits="userSpaceOnUse">
<stop stop-color="#FFBC47" stop-opacity="0"/>
<stop offset="1" stop-color="#C86F34"/>
</linearGradient>
<linearGradient id="paint33_linear_170_2621" x1="39.0017" y1="12.936" x2="43.6765" y2="2.79343" gradientUnits="userSpaceOnUse">
<stop stop-color="#FFBC47" stop-opacity="0"/>
<stop offset="1" stop-color="#C86F34"/>
</linearGradient>
<linearGradient id="paint34_linear_170_2621" x1="38.0714" y1="4.038" x2="38.7556" y2="-2.3733" gradientUnits="userSpaceOnUse">
<stop stop-color="#FFBC47" stop-opacity="0"/>
<stop offset="1" stop-color="#C86F34"/>
</linearGradient>
<linearGradient id="paint35_linear_170_2621" x1="38.2324" y1="5.0107" x2="38.2324" y2="9.64844" gradientUnits="userSpaceOnUse">
<stop stop-color="#FFBC47" stop-opacity="0"/>
<stop offset="1" stop-color="#C86F34"/>
</linearGradient>
<linearGradient id="paint36_linear_170_2621" x1="6.92191" y1="17.8141" x2="-7.61353" y2="-4.149" gradientUnits="userSpaceOnUse">
<stop stop-color="#C86F34" stop-opacity="0"/>
<stop offset="1" stop-color="#C86F34"/>
</linearGradient>
<linearGradient id="paint37_linear_170_2621" x1="5.96172" y1="12.9564" x2="8.35643" y2="2.27121" gradientUnits="userSpaceOnUse">
<stop stop-color="#FFBC47" stop-opacity="0"/>
<stop offset="1" stop-color="#C86F34"/>
</linearGradient>
<linearGradient id="paint38_linear_170_2621" x1="7.41228" y1="10.9515" x2="7.07017" y2="-2.12758" gradientUnits="userSpaceOnUse">
<stop stop-color="#FFBC47" stop-opacity="0"/>
<stop offset="1" stop-color="#C86F34"/>
</linearGradient>
<radialGradient id="paint39_radial_170_2621" cx="0" cy="0" r="1" gradientUnits="userSpaceOnUse" gradientTransform="translate(27.6945 52.4705) rotate(-79.0714) scale(6.02306 3.53329)">
<stop stop-color="#FBE07A"/>
<stop offset="1" stop-color="#FFD748" stop-opacity="0"/>
</radialGradient>
</defs>
</svg>
